<svg xmlns:xlink="http://www.w3.org/1999/xlink" xmlns="http://www.w3.org/2000/svg" fill="currentColor" class="css-jw93ck" width="24"  height="24" ><defs><symbol viewBox="0 0 24 24" id="icon-h-twitter"><path d="M8.28726 20.5C15.832 20.5 19.9621 13.965 19.9621 8.30213C19.9621 8.12092 19.9621 7.93971 19.9512 7.74717C20.7534 7.1469 21.4472 6.38807 22 5.52732C21.2629 5.86709 20.4715 6.0936 19.6369 6.20686C20.4824 5.67455 21.1328 4.83644 21.4472 3.82845C20.6558 4.32678 19.7778 4.67788 18.8347 4.87042C18.0867 4.02099 17.0244 3.5 15.8428 3.5C13.5772 3.5 11.7344 5.42538 11.7344 7.79247C11.7344 8.13225 11.7778 8.44937 11.8428 8.76649C8.43902 8.5966 5.41463 6.87508 3.38753 4.28148C3.02981 4.92705 2.83469 5.66322 2.83469 6.4447C2.83469 7.92838 3.56098 9.24217 4.65583 10.0123C3.98374 9.98967 3.35501 9.79714 2.80217 9.48001C2.80217 9.49134 2.80217 9.51399 2.80217 9.53664C2.80217 11.6093 4.22222 13.3534 6.08672 13.7385C5.73984 13.8404 5.38211 13.8857 5.00271 13.8857C4.74255 13.8857 4.48238 13.8631 4.23306 13.8065C4.75339 15.5167 6.271 16.7512 8.07046 16.7851C6.66125 17.9404 4.89431 18.6199 2.97561 18.6199C2.65041 18.6199 2.31436 18.6086 2 18.5633C3.8103 19.7865 5.96748 20.5 8.28726 20.5Z" fill="currentColor"></path></symbol></defs><use xlink:href="#icon-h-twitter" fill="#707A8A"></use></svg>