<svg xmlns:xlink="http://www.w3.org/1999/xlink" xmlns="http://www.w3.org/2000/svg" fill="currentColor" class="css-jw93ck" width="24"  height="24" ><defs><symbol viewBox="0 0 24 24" id="icon-h-youtube"><path d="M22.5574 6.94689C22.3051 6.04851 21.5602 5.33208 20.6111 5.09327C18.8931 4.66113 12.0091 4.66113 12.0091 4.66113C12.0091 4.66113 5.113 4.66113 3.39499 5.09327C2.44589 5.34345 1.71303 6.04851 1.44872 6.94689C0.992188 8.58444 0.992188 11.996 0.992188 11.996C0.992188 11.996 0.992188 15.4076 1.44872 17.0452C1.70102 17.9549 2.44589 18.66 3.39499 18.8988C5.113 19.3309 11.997 19.3309 11.997 19.3309C11.997 19.3309 18.8811 19.3309 20.5991 18.8988C21.5362 18.66 22.2931 17.9549 22.5454 17.0452C23.0019 15.4076 23.0019 11.996 23.0019 11.996C23.0019 11.996 23.0139 8.58444 22.5574 6.94689ZM9.75042 15.1006V8.90286L15.5051 11.996L9.75042 15.1006Z" fill="currentColor"></path></symbol></defs><use xlink:href="#icon-h-youtube" fill="#707A8A"></use></svg>