<svg xmlns:xlink="http://www.w3.org/1999/xlink" xmlns="http://www.w3.org/2000/svg" fill="currentColor" class="css-jw93ck" width="24"  height="24" ><defs><symbol viewBox="0 0 24 24" id="icon-h-reddit"><path d="M9.71176 11.9941C10.2872 11.9941 10.756 12.463 10.756 13.0384C10.756 13.6138 10.2872 14.0827 9.71176 14.0827C9.13634 14.0827 8.66748 13.6138 8.66748 13.0384C8.66748 12.463 9.13634 11.9941 9.71176 11.9941Z" fill="currentColor"></path><path d="M12.0028 16.0217C12.6847 16.0217 13.6438 15.8619 14.0913 15.4143C14.1979 15.3078 14.3684 15.3078 14.4749 15.4037C14.5815 15.5102 14.5815 15.6807 14.4749 15.7873C13.761 16.5012 12.4077 16.5545 12.0028 16.5545C11.5978 16.5545 10.2445 16.5012 9.5306 15.7979C9.42404 15.6914 9.42404 15.5209 9.5306 15.4143C9.63716 15.3078 9.80766 15.3078 9.91421 15.4143C10.3618 15.8619 11.3208 16.0217 12.0028 16.0217Z" fill="currentColor"></path><path d="M13.2495 13.0492C13.2495 12.4737 13.7184 12.0049 14.2938 12.0049C14.8585 12.0049 15.3274 12.4737 15.3381 13.0492C15.3381 13.6246 14.8692 14.0934 14.2938 14.0934C13.7184 14.0934 13.2495 13.6246 13.2495 13.0492Z" fill="currentColor"></path><path fill-rule="evenodd" clip-rule="evenodd" d="M12.003 2.00977C6.48328 2.00977 2.00781 6.48523 2.00781 12.005C2.00781 17.5247 6.48328 22.0002 12.003 22.0002C17.5227 22.0002 21.9982 17.5354 21.9982 12.005C21.9876 6.48523 17.5227 2.00977 12.003 2.00977ZM17.7998 13.3369C17.8211 13.4755 17.8318 13.6247 17.8318 13.7738C17.8318 16.0222 15.2211 17.8337 12.003 17.8337C8.78494 17.8337 6.17426 16.0222 6.17426 13.7738C6.17426 13.6247 6.18491 13.4755 6.20622 13.3369C5.69474 13.1132 5.3431 12.6017 5.3431 12.005C5.3431 11.2058 5.99311 10.5451 6.80295 10.5451C7.19722 10.5451 7.54886 10.6943 7.81526 10.95C8.82756 10.2148 10.2235 9.75658 11.7792 9.71395C11.7792 9.69264 12.5145 6.22949 12.5145 6.22949C12.5145 6.16555 12.5571 6.10162 12.6104 6.06965C12.6637 6.02703 12.7383 6.01637 12.8129 6.02703L15.2317 6.54916C15.4022 6.20818 15.7539 5.96309 16.1588 5.96309C16.7342 5.96309 17.2031 6.42129 17.2031 7.00737C17.2031 7.59344 16.7342 8.05164 16.1588 8.05164C15.6047 8.05164 15.1465 7.61475 15.1252 7.06064L12.9514 6.59179L12.2907 9.71395C13.8252 9.76723 15.1998 10.2361 16.1908 10.95C16.4572 10.6943 16.8088 10.5345 17.2031 10.5345C18.0129 10.5345 18.6629 11.1845 18.6629 11.9943C18.6629 12.6017 18.3006 13.1025 17.7998 13.3369Z" fill="currentColor"></path></symbol></defs><use xlink:href="#icon-h-reddit" fill="#707A8A"></use></svg>