<svg xmlns:xlink="http://www.w3.org/1999/xlink" xmlns="http://www.w3.org/2000/svg" fill="currentColor" class="css-jw93ck" width="24"  height="24" ><defs><symbol viewBox="0 0 24 24" id="icon-h-coinmarketcap"><path fill-rule="evenodd" clip-rule="evenodd" d="M19.392 13.9478C19.0378 14.173 18.6265 14.1955 18.3066 14.0154C17.9068 13.7902 17.6783 13.2724 17.6783 12.5407V10.368C17.6783 9.30985 17.2556 8.56687 16.5473 8.36424C15.3477 8.01527 14.4452 9.46745 14.1139 10.0078L12.0003 13.385V9.25356C11.9775 8.30795 11.6576 7.73383 11.0635 7.56498C10.6751 7.4524 10.081 7.49743 9.50979 8.35298L4.78005 15.8503C4.15171 14.6683 3.8204 13.3399 3.8204 12.0003C3.8204 7.48618 7.48766 3.81632 12.0003 3.81632C16.513 3.81632 20.1802 7.48618 20.1802 12.0003C20.1802 12.0116 20.1802 12.0116 20.1802 12.0228C20.1802 12.0341 20.1802 12.0341 20.1802 12.0454C20.2145 12.9234 19.9289 13.6101 19.392 13.9478ZM21.9967 12.0003V11.9778V11.9553C21.9625 6.46177 17.4955 2.00391 12.0003 2.00391C6.4823 2.00391 2.00391 6.48428 2.00391 12.0003C2.00391 17.5164 6.4823 21.9967 12.0003 21.9967C14.5251 21.9967 16.9471 21.0511 18.7979 19.3288C19.1635 18.9911 19.1863 18.4169 18.8436 18.0455C18.5123 17.6852 17.9411 17.6515 17.5755 17.9892L17.564 18.0004C16.0674 19.3963 14.0682 20.1843 12.0003 20.1843C9.58976 20.1843 7.41911 19.1261 5.91108 17.4601L10.1838 10.7057V13.824C10.1838 15.3212 10.7779 15.8053 11.2692 15.9404C11.7604 16.0867 12.5144 15.9854 13.3141 14.7133L15.6562 10.9647C15.7361 10.8408 15.8047 10.7395 15.8618 10.6495V12.5407C15.8618 13.9366 16.433 15.051 17.4155 15.6026C18.3066 16.098 19.4262 16.0529 20.3402 15.4901C21.4598 14.8034 22.0539 13.5313 21.9967 12.0003Z" fill="currentColor"></path></symbol></defs><use xlink:href="#icon-h-coinmarketcap" fill="#707A8A"></use></svg>