<svg xmlns:xlink="http://www.w3.org/1999/xlink" xmlns="http://www.w3.org/2000/svg" fill="currentColor" class="css-mykl4n" width="24"  height="24" ><defs><symbol viewBox="0 0 24 24" id="language-f"><path fill-rule="evenodd" clip-rule="evenodd" d="M15.2307 20.4027C18.2316 19.2481 20.4577 16.5321 20.9137 13.25H16.9718C16.8248 16.1102 16.1791 18.638 15.2307 20.4027ZM14.473 13.25C14.2952 17.3518 13.2556 20.5 11.9998 20.5C10.744 20.5 9.70447 17.3518 9.52667 13.25H14.473ZM14.473 10.75H9.52667C9.70447 6.64821 10.744 3.5 11.9998 3.5C13.2556 3.5 14.2952 6.64821 14.473 10.75ZM16.9718 10.75H20.9137C20.4577 7.46786 18.2316 4.75191 15.2307 3.59731C16.1791 5.36198 16.8248 7.88979 16.9718 10.75ZM7.03566 10.75C7.18282 7.88774 7.82928 5.35836 8.77882 3.59353C5.77291 4.74598 3.54249 7.46427 3.08594 10.75H7.03566ZM7.03566 13.25H3.08594C3.54249 16.5357 5.77291 19.254 8.77882 20.4065C7.82928 18.6416 7.18282 16.1123 7.03566 13.25Z" fill="currentColor"></path></symbol></defs><use xlink:href="#language-f" fill="#707A8A"></use></svg>