<svg xmlns:xlink="http://www.w3.org/1999/xlink" xmlns="http://www.w3.org/2000/svg" fill="currentColor" class="css-mykl4n" width="24"  height="24" ><defs><symbol viewBox="0 0 24 24" id="earn-s24"><path d="M11.3363 8.57657C10.5672 8.72738 10.2354 9.13457 10.2354 9.72274C10.2354 10.2958 10.5672 10.5974 11.3363 10.8086V8.57657Z" fill="currentColor"></path><path d="M12.6785 15.3933C13.3873 15.1972 13.7191 14.7297 13.7191 14.1566C13.7191 13.7193 13.5382 13.2668 12.6785 13.0104V15.3933Z" fill="currentColor"></path><path fill-rule="evenodd" clip-rule="evenodd" d="M12 21C16.9706 21 21 16.9706 21 12C21 7.02944 16.9706 3 12 3C7.02944 3 3 7.02944 3 12C3 16.9706 7.02944 21 12 21ZM12.8595 17.0522V18.5H11.1402V17.1125C9.61705 16.9768 8.60661 16.3585 7.85255 15.529L9.20985 14.2923C9.78294 14.8956 10.4918 15.3028 11.3363 15.4234V12.7088C9.07412 12.2413 8.15417 11.2459 8.15417 9.78306C8.15417 8.19954 9.19477 7.14385 11.1402 6.91763V5.5H12.8595V6.91763C14.066 7.05336 14.9558 7.52088 15.6194 8.27494L14.247 9.5116C13.885 9.10441 13.4024 8.77262 12.6785 8.60673V11.1102C14.7899 11.5928 15.8003 12.4524 15.8003 13.9907C15.8003 15.4687 14.8653 16.7204 12.8595 17.0522Z" fill="currentColor"></path></symbol></defs><use xlink:href="#earn-s24" fill="#707A8A"></use></svg>