<svg xmlns:xlink="http://www.w3.org/1999/xlink" xmlns="http://www.w3.org/2000/svg" fill="currentColor" class="css-jw93ck" width="24"  height="24" ><defs><symbol viewBox="0 0 24 24" id="icon-h-vk"><path d="M12 2C6.47761 2 2 6.47761 2 12C2 17.5224 6.47761 22 12 22C17.5224 22 22 17.5224 22 12C22 6.47761 17.5117 2 12 2ZM18.1407 16.2644H16.6908C16.1365 16.2644 15.9765 15.8166 14.9851 14.8252C14.1215 13.9936 13.7484 13.8763 13.5352 13.8763C13.2367 13.8763 13.1514 13.951 13.1514 14.3667V15.678C13.1514 16.0299 13.0341 16.2431 12.1066 16.2431C10.5714 16.2431 8.86567 15.3156 7.66098 13.5778C5.84861 11.0405 5.35821 9.12154 5.35821 8.73774C5.35821 8.52452 5.43284 8.33262 5.84861 8.33262H7.31983C7.6823 8.33262 7.83156 8.49254 7.97015 8.89765C8.68443 10.9765 9.88913 12.7889 10.3795 12.7889C10.5608 12.7889 10.6461 12.7036 10.6461 12.2345V10.1023C10.5928 9.11087 10.0704 9.02559 10.0704 8.67377C10.0704 8.5032 10.209 8.33262 10.4328 8.33262H12.7143C13.0235 8.33262 13.1407 8.5032 13.1407 8.86567V11.7548C13.1407 12.064 13.2687 12.1812 13.3646 12.1812C13.5458 12.1812 13.7058 12.064 14.0469 11.7335C15.0917 10.5608 15.838 8.75906 15.838 8.75906C15.9339 8.54584 16.1045 8.35394 16.4776 8.35394H17.9275C18.3646 8.35394 18.4606 8.57783 18.3646 8.88699C18.1834 9.72921 16.4136 12.2239 16.4136 12.2452C16.2537 12.5011 16.2004 12.6077 16.4136 12.8955C16.5736 13.1087 17.0746 13.5458 17.4158 13.9403C18.0341 14.6439 18.5139 15.2409 18.6418 15.6461C18.7591 16.0512 18.5565 16.2644 18.1407 16.2644Z" fill="currentColor"></path></symbol></defs><use xlink:href="#icon-h-vk" fill="#707A8A"></use></svg>