<svg xmlns:xlink="http://www.w3.org/1999/xlink" xmlns="http://www.w3.org/2000/svg" fill="currentColor" class="css-mykl4n" width="25"  height="24" ><defs><symbol viewBox="0 0 25 24" id="logo"><path d="M5.41406 12L2.71875 14.6953L0 12L2.71875 9.28125L5.41406 12ZM12 5.41406L16.6406 10.0547L19.3594 7.33594L12 0L4.64062 7.35938L7.35938 10.0781L12 5.41406ZM21.2812 9.28125L18.5859 12L21.3047 14.7188L24.0234 12L21.2812 9.28125ZM12 18.5859L7.35938 13.9219L4.64062 16.6406L12 24L19.3594 16.6406L16.6406 13.9219L12 18.5859ZM12 14.6953L14.7188 11.9766L12 9.28125L9.28125 12L12 14.6953Z" fill="currentColor"></path></symbol></defs><use xlink:href="#logo" fill="#707A8A"></use></svg>