<svg xmlns:xlink="http://www.w3.org/1999/xlink" xmlns="http://www.w3.org/2000/svg" fill="currentColor" class="css-jw93ck" width="24"  height="24" ><defs><symbol viewBox="0 0 24 24" id="icon-h-instagram"><path fill-rule="evenodd" clip-rule="evenodd" d="M12.0001 7.38184C9.44926 7.38184 7.38184 9.44926 7.38184 12.0001C7.38184 14.551 9.44926 16.6184 12.0001 16.6184C14.551 16.6184 16.6184 14.551 16.6184 12.0001C16.6184 9.44926 14.551 7.38184 12.0001 7.38184ZM12.0001 15.0036C10.3441 15.0036 8.99669 13.6561 8.99669 12.0001C8.99669 10.3441 10.3441 8.99669 12.0001 8.99669C13.6561 8.99669 15.0036 10.3441 15.0036 12.0001C15.0036 13.6561 13.6561 15.0036 12.0001 15.0036Z" fill="currentColor"></path><path d="M17.8836 7.1967C17.8836 7.79317 17.4001 8.2767 16.8036 8.2767C16.2072 8.2767 15.7236 7.79317 15.7236 7.1967C15.7236 6.60023 16.2072 6.1167 16.8036 6.1167C17.4001 6.1167 17.8836 6.60023 17.8836 7.1967Z" fill="currentColor"></path><path fill-rule="evenodd" clip-rule="evenodd" d="M12 3C9.552 3 9.25371 3.01029 8.28686 3.05143C7.33029 3.10286 6.672 3.24686 6.10629 3.47314C5.50971 3.69943 5.016 4.008 4.512 4.512C4.008 5.016 3.69943 5.50971 3.47314 6.10629C3.24686 6.672 3.10286 7.33029 3.05143 8.28686C3.01029 9.25371 3 9.552 3 12C3 14.448 3.01029 14.7463 3.05143 15.7131C3.09257 16.6697 3.24686 17.328 3.47314 17.8937C3.69943 18.4903 4.008 18.984 4.512 19.488C5.016 19.992 5.50971 20.3006 6.10629 20.5269C6.68229 20.7531 7.33029 20.8971 8.28686 20.9486C9.24343 20.9897 9.552 21 12 21C14.448 21 14.7463 20.9897 15.7131 20.9486C16.6697 20.9074 17.328 20.7531 17.8937 20.5269C18.4903 20.3006 18.984 19.992 19.488 19.488C19.992 18.984 20.3006 18.4903 20.5269 17.8937C20.7531 17.3177 20.8971 16.6697 20.9486 15.7131C20.9897 14.7566 21 14.448 21 12C21 9.552 20.9897 9.25371 20.9486 8.28686C20.9074 7.33029 20.7531 6.672 20.5269 6.10629C20.3006 5.50971 19.992 5.016 19.488 4.512C18.984 4.008 18.4903 3.69943 17.8937 3.47314C17.3177 3.24686 16.6697 3.10286 15.7131 3.05143C14.7463 3.01029 14.448 3 12 3ZM12 4.62514C14.4069 4.62514 14.6846 4.63543 15.6411 4.67657C16.5154 4.71771 16.9989 4.86171 17.3074 4.98514C17.7291 5.14971 18.0274 5.34514 18.3463 5.65371C18.6651 5.97257 18.8606 6.27086 19.0149 6.69257C19.1383 7.01143 19.2823 7.48457 19.3234 8.35886C19.3646 9.30514 19.3749 9.59314 19.3749 12C19.3749 14.4069 19.3646 14.6846 19.3234 15.6411C19.2823 16.5154 19.1383 16.9989 19.0149 17.3074C18.8503 17.7291 18.6549 18.0274 18.3463 18.3463C18.0274 18.6651 17.7291 18.8606 17.3074 19.0149C16.9886 19.1383 16.5154 19.2823 15.6411 19.3234C14.6949 19.3646 14.4069 19.3749 12 19.3749C9.59314 19.3749 9.31543 19.3646 8.35886 19.3234C7.48457 19.2823 7.00114 19.1383 6.69257 19.0149C6.27086 18.8503 5.97257 18.6549 5.65371 18.3463C5.33486 18.0274 5.13943 17.7291 4.98514 17.3074C4.86171 16.9886 4.71771 16.5154 4.67657 15.6411C4.63543 14.6949 4.62514 14.4069 4.62514 12C4.62514 9.59314 4.63543 9.31543 4.67657 8.35886C4.71771 7.48457 4.86171 7.00114 4.98514 6.69257C5.14971 6.27086 5.34514 5.97257 5.65371 5.65371C5.97257 5.33486 6.27086 5.13943 6.69257 4.98514C7.01143 4.86171 7.48457 4.71771 8.35886 4.67657C9.31543 4.63543 9.59314 4.62514 12 4.62514Z" fill="currentColor"></path></symbol></defs><use xlink:href="#icon-h-instagram" fill="#707A8A"></use></svg>