<svg width="72" height="72" fill="none" xmlns="http://www.w3.org/2000/svg"><path fill-rule="evenodd" clip-rule="evenodd" d="M66 57.002H6v-45h60v45zM25.875 25.395L15.75 36.002l10.125 10.606c5.592 5.858 14.658 5.858 20.25 0L56.25 36.002 46.125 25.395c-5.592-5.858-14.658-5.858-20.25 0z" fill="url(#paint0_linear_1288_32013)"/><path d="M1.5 55.5h69V60h-69v-4.5zM6 12h60v4.5H6V12z" fill="#76808F"/><path opacity=".2" d="M20.25 66L18 63.75 15.75 66 18 68.25 20.25 66zM3 25.5H0v3h3v-3z" fill="#76808F"/><circle opacity=".2" cx="41.25" cy="30.75" r="3.75" fill="#76808F"/><path d="M43.849 33.453a3.75 3.75 0 01-5.303-5.302 8.25 8.25 0 105.303 5.302z" fill="#76808F"/><path opacity=".2" d="M54 5.249l3 3 3-3-3-3-3 3z" fill="#76808F"/><defs><linearGradient id="paint0_linear_1288_32013" x1="36" y1="57.002" x2="36" y2="12.002" gradientUnits="userSpaceOnUse"><stop stop-color="#F0B90B"/><stop offset="1" stop-color="#F8D33A"/></linearGradient></defs></svg>