<svg width="80" height="80" fill="none" xmlns="http://www.w3.org/2000/svg"><path fill-rule="evenodd" clip-rule="evenodd" d="M12.6 70h51.567A5.833 5.833 0 0070 64.165V13.334H18.334v50.833a5.833 5.833 0 01-5.734 5.832zm49.067-36.666h-16.25v3.333h16.25v-3.333zm0 7.5h-16.25v3.333h16.25v-3.333zm0 7.5h-16.25v3.333h16.25v-3.333zm0 7.5h-35v3.333h35v-3.333z" fill="url(#paint0_linear_1288_34611)"/><path opacity=".2" d="M6.666 40.001v24.166a5.833 5.833 0 0011.666 0V40H6.666z" fill="#76808F"/><path d="M26.666 51.667h14.583V33.333H26.666v18.334z" fill="url(#paint1_linear_1288_34611)"/><path d="M55 25H33.335v-3.333h21.667V25z" fill="url(#paint2_linear_1288_34611)"/><path opacity=".2" d="M6.666 25l3.333 3.333L13.333 25l-3.334-3.333L6.666 25zM60 75.833l2.5 2.5 2.5-2.5-2.5-2.5-2.5 2.5zM73.334 40h2.5v-2.5h-2.5V40z" fill="#76808F"/><defs><linearGradient id="paint0_linear_1288_34611" x1="41.25" y1="13.334" x2="41.25" y2="69.999" gradientUnits="userSpaceOnUse"><stop stop-color="#76808F"/><stop offset="1" stop-color="#929AA5"/></linearGradient><linearGradient id="paint1_linear_1288_34611" x1="33.958" y1="51.667" x2="33.958" y2="33.333" gradientUnits="userSpaceOnUse"><stop stop-color="#F0B90B"/><stop offset="1" stop-color="#F8D33A"/></linearGradient><linearGradient id="paint2_linear_1288_34611" x1="33.334" y1="23.333" x2="55.001" y2="23.333" gradientUnits="userSpaceOnUse"><stop stop-color="#F0B90B"/><stop offset="1" stop-color="#F8D33A"/></linearGradient></defs></svg>