<svg width="80" height="80" fill="none" xmlns="http://www.w3.org/2000/svg"><path opacity=".2" d="M64.166 19.167l3.333 3.333 3.334-3.333-3.334-3.334-3.333 3.334zm-55 45l2.5 2.5 2.5-2.5-2.5-2.5-2.5 2.5zm27.5 12.5h2.5v-2.5h-2.5v2.5z" fill="#76808F"/><path fill-rule="evenodd" clip-rule="evenodd" d="M70 29.167H30v36.666h20l10.833 10.834V65.833H70V29.167zm-32.5 9.166h25v3.334h-25v-3.334zm0 7.5h25v3.334h-25v-3.334zm12.5 7.5H37.5v3.334H50v-3.334z" fill="url(#paint0_linear_1288_32038)"/><path d="M10 10h40v19.167H30v17.5L19.167 57.5V46.667H10V10z" fill="url(#paint1_linear_1288_32038)"/><defs><linearGradient id="paint0_linear_1288_32038" x1="50" y1="76.667" x2="50" y2="29.167" gradientUnits="userSpaceOnUse"><stop stop-color="#F0B90B"/><stop offset="1" stop-color="#F8D33A"/></linearGradient><linearGradient id="paint1_linear_1288_32038" x1="30" y1="10" x2="30" y2="57.5" gradientUnits="userSpaceOnUse"><stop stop-color="#929AA5"/><stop offset="1" stop-color="#76808F"/></linearGradient></defs></svg>