<svg width="80" height="80" fill="none" xmlns="http://www.w3.org/2000/svg"><path opacity=".2" d="M61.666 7.5l3.333 3.333L68.333 7.5l-3.334-3.333L61.666 7.5zm-57.5 26.667l2.5 2.5 2.5-2.5-2.5-2.5-2.5 2.5zm66.668 10h2.5v-2.5h-2.5v2.5z" fill="#76808F"/><circle cx="39.999" cy="39.167" r="3.333" fill="url(#paint0_linear_1288_32024)"/><path opacity=".2" d="M30 45l10 10 10-10v25H30V45z" fill="#76808F"/><path d="M30 45h-6.667C15.97 45 10 50.97 10 58.333V70h20V45z" fill="url(#paint1_linear_1288_32024)"/><path d="M50 45v25h20V58.333C70 50.97 64.03 45 56.667 45H50z" fill="url(#paint2_linear_1288_32024)"/><path d="M27.5 20c0-6.903 5.596-12.5 12.5-12.5 6.903 0 12.5 5.597 12.5 12.5v1.667h3.333V20c0-8.745-7.09-15.833-15.834-15.833S24.166 11.255 24.166 20v1.667h3.333V20z" fill="url(#paint3_linear_1288_32024)"/><path d="M59.167 29.881c0 2.367-1.99 4.286-4.445 4.286H52.5V21.25h2.222c2.455 0 4.445 1.919 4.445 4.286v4.345z" fill="url(#paint4_linear_1288_32024)"/><path d="M20.833 29.881c0 2.367 1.99 4.286 4.445 4.286H27.5V21.25h-2.222c-2.455 0-4.445 1.919-4.445 4.286v4.345z" fill="url(#paint5_linear_1288_32024)"/><defs><linearGradient id="paint0_linear_1288_32024" x1="39.999" y1="35.833" x2="39.999" y2="42.5" gradientUnits="userSpaceOnUse"><stop stop-color="#F0B90B"/><stop offset="1" stop-color="#F8D33A"/></linearGradient><linearGradient id="paint1_linear_1288_32024" x1="40" y1="70" x2="40" y2="45" gradientUnits="userSpaceOnUse"><stop stop-color="#76808F"/><stop offset="1" stop-color="#929AA5"/></linearGradient><linearGradient id="paint2_linear_1288_32024" x1="40" y1="70" x2="40" y2="45" gradientUnits="userSpaceOnUse"><stop stop-color="#76808F"/><stop offset="1" stop-color="#929AA5"/></linearGradient><linearGradient id="paint3_linear_1288_32024" x1="39.999" y1="4.167" x2="39.999" y2="21.667" gradientUnits="userSpaceOnUse"><stop stop-color="#929AA5"/><stop offset="1" stop-color="#76808F"/></linearGradient><linearGradient id="paint4_linear_1288_32024" x1="55.833" y1="34.167" x2="55.833" y2="21.25" gradientUnits="userSpaceOnUse"><stop stop-color="#F0B90B"/><stop offset="1" stop-color="#F8D33A"/></linearGradient><linearGradient id="paint5_linear_1288_32024" x1="24.167" y1="34.167" x2="24.167" y2="21.25" gradientUnits="userSpaceOnUse"><stop stop-color="#F0B90B"/><stop offset="1" stop-color="#F8D33A"/></linearGradient></defs></svg>