<svg xmlns:xlink="http://www.w3.org/1999/xlink" xmlns="http://www.w3.org/2000/svg" fill="currentColor" class="css-6px2js" width="24"  height="24" ><defs><symbol viewBox="0 0 24 24" id="futures-f"><path fill-rule="evenodd" clip-rule="evenodd" d="M8.5 3H20V16C20 18.2091 18.2091 20 16 20H7.5C5.567 20 4 18.433 4 16.5V9H8.5V3ZM11 14.5056V17.0056L17.5 17.0056V14.5056H11ZM8.5 11.5H6.5V16.5C6.5 17.0523 6.94772 17.5 7.5 17.5C8.05228 17.5 8.5 17.0523 8.5 16.5V11.5ZM12.5001 6.00562H17.5001V11.0056L15.8846 9.3901L13.2691 12.0056L11.5013 10.2379L14.1168 7.62233L12.5001 6.00562Z" fill="currentColor"></path></symbol></defs><use xlink:href="#futures-f" fill="#848E9C"></use></svg>