<?xml version="1.0" standalone="no"?>
<!DOCTYPE svg PUBLIC "-//W3C//DTD SVG 20010904//EN"
 "http://www.w3.org/TR/2001/REC-SVG-20010904/DTD/svg10.dtd">
<svg version="1.0" xmlns="http://www.w3.org/2000/svg"
 width="512.000000pt" height="512.000000pt" viewBox="0 0 512.000000 512.000000"
 preserveAspectRatio="xMidYMid meet">

<g transform="translate(0.000000,512.000000) scale(0.100000,-0.100000)"
fill="#000000" stroke="none">
<path d="M72 5100 c-18 -11 -41 -34 -52 -52 -20 -33 -20 -56 -20 -2488 0
-2432 0 -2455 20 -2488 11 -18 34 -41 52 -52 33 -20 56 -20 2488 -20 2432 0
2455 0 2488 20 18 11 41 34 52 52 20 33 20 56 20 2488 0 2432 0 2455 -20 2488
-11 18 -34 41 -52 52 -32 19 -52 20 -828 20 -751 0 -797 -1 -829 -18 -65 -35
-71 -61 -71 -292 0 -231 6 -257 71 -292 31 -17 70 -18 571 -18 l538 0 0 -1940
0 -1940 -1940 0 -1940 0 0 1940 0 1940 538 0 c501 0 540 1 571 18 65 35 71 61
71 292 0 231 -6 257 -71 292 -32 17 -78 18 -829 18 -776 0 -796 -1 -828 -20z"/>
<path d="M2315 4780 c-16 -11 -38 -34 -47 -52 -17 -30 -18 -98 -18 -1003 l0
-970 -317 317 c-341 338 -348 344 -419 318 -43 -16 -332 -308 -340 -343 -17
-80 -39 -56 654 -750 711 -712 692 -695 775 -663 34 13 169 142 689 663 693
694 671 670 654 750 -8 35 -297 327 -340 343 -71 26 -78 20 -418 -318 l-318
-317 0 969 c0 1072 4 1014 -65 1056 -30 18 -49 20 -246 20 -196 0 -216 -2
-244 -20z"/>
</g>
</svg>
