<svg width="72" height="72" fill="none" xmlns="http://www.w3.org/2000/svg"><path fill-rule="evenodd" clip-rule="evenodd" d="M6 12.002v48h60v-48H6zm7.5 21h-3v-9h3v9zM13.5 48h-3v-9h3v9zM51 24.007H37.5v8.25H51v-8.25z" fill="url(#paint0_linear_1288_32000)"/><path fill-rule="evenodd" clip-rule="evenodd" d="M12 18h48v36H12v-5.998h1.5v-9H12v-6h1.5v-9H12V18zm39 6.007H37.5v8.25H51v-8.25z" fill="url(#paint1_linear_1288_32000)"/><path opacity=".2" d="M33 2.625l2.625 2.625 2.625-2.625L35.625 0 33 2.625zM0 31.502l1.5 1.5 1.5-1.5-1.5-1.5-1.5 1.5zM49.5 69h3v-3h-3v3zm-39-35.997h3v-9h-3v9zM10.5 48h3v-9h-3v9z" fill="#76808F"/><path d="M57 48.006h-3v-24h3v24z" fill="url(#paint2_linear_1288_32000)"/><path d="M37.5 34.506h3v3h-3v-3z" fill="url(#paint3_linear_1288_32000)"/><path d="M51 34.506h-3v3h3v-3z" fill="url(#paint4_linear_1288_32000)"/><path d="M42.75 34.506h3v3h-3v-3z" fill="url(#paint5_linear_1288_32000)"/><path d="M40.5 39.759h-3v3h3v-3z" fill="url(#paint6_linear_1288_32000)"/><path d="M48 39.759h3v3h-3v-3z" fill="url(#paint7_linear_1288_32000)"/><path d="M45.75 39.759h-3v3h3v-3z" fill="url(#paint8_linear_1288_32000)"/><path d="M37.5 45.007h3v3h-3v-3z" fill="url(#paint9_linear_1288_32000)"/><path d="M51 45.007h-3v3h3v-3z" fill="url(#paint10_linear_1288_32000)"/><path d="M42.75 45.007h3v3h-3v-3z" fill="url(#paint11_linear_1288_32000)"/><defs><linearGradient id="paint0_linear_1288_32000" x1="6" y1="12.003" x2="66" y2="12.003" gradientUnits="userSpaceOnUse"><stop stop-color="#76808F"/><stop offset="1" stop-color="#929AA5"/></linearGradient><linearGradient id="paint1_linear_1288_32000" x1="36" y1="54" x2="36" y2="18" gradientUnits="userSpaceOnUse"><stop stop-color="#F0B90B"/><stop offset="1" stop-color="#F8D33A"/></linearGradient><linearGradient id="paint2_linear_1288_32000" x1="46.688" y1="24.004" x2="46.688" y2="48.378" gradientUnits="userSpaceOnUse"><stop stop-color="#929AA5"/><stop offset="1" stop-color="#76808F"/></linearGradient><linearGradient id="paint3_linear_1288_32000" x1="46.688" y1="24.004" x2="46.688" y2="48.378" gradientUnits="userSpaceOnUse"><stop stop-color="#929AA5"/><stop offset="1" stop-color="#76808F"/></linearGradient><linearGradient id="paint4_linear_1288_32000" x1="46.688" y1="24.004" x2="46.688" y2="48.378" gradientUnits="userSpaceOnUse"><stop stop-color="#929AA5"/><stop offset="1" stop-color="#76808F"/></linearGradient><linearGradient id="paint5_linear_1288_32000" x1="46.688" y1="24.004" x2="46.688" y2="48.378" gradientUnits="userSpaceOnUse"><stop stop-color="#929AA5"/><stop offset="1" stop-color="#76808F"/></linearGradient><linearGradient id="paint6_linear_1288_32000" x1="46.688" y1="24.004" x2="46.688" y2="48.378" gradientUnits="userSpaceOnUse"><stop stop-color="#929AA5"/><stop offset="1" stop-color="#76808F"/></linearGradient><linearGradient id="paint7_linear_1288_32000" x1="46.688" y1="24.004" x2="46.688" y2="48.378" gradientUnits="userSpaceOnUse"><stop stop-color="#929AA5"/><stop offset="1" stop-color="#76808F"/></linearGradient><linearGradient id="paint8_linear_1288_32000" x1="46.688" y1="24.004" x2="46.688" y2="48.378" gradientUnits="userSpaceOnUse"><stop stop-color="#929AA5"/><stop offset="1" stop-color="#76808F"/></linearGradient><linearGradient id="paint9_linear_1288_32000" x1="46.688" y1="24.004" x2="46.688" y2="48.378" gradientUnits="userSpaceOnUse"><stop stop-color="#929AA5"/><stop offset="1" stop-color="#76808F"/></linearGradient><linearGradient id="paint10_linear_1288_32000" x1="46.688" y1="24.004" x2="46.688" y2="48.378" gradientUnits="userSpaceOnUse"><stop stop-color="#929AA5"/><stop offset="1" stop-color="#76808F"/></linearGradient><linearGradient id="paint11_linear_1288_32000" x1="46.688" y1="24.004" x2="46.688" y2="48.378" gradientUnits="userSpaceOnUse"><stop stop-color="#929AA5"/><stop offset="1" stop-color="#76808F"/></linearGradient></defs></svg>