<svg xmlns:xlink="http://www.w3.org/1999/xlink" xmlns="http://www.w3.org/2000/svg" fill="currentColor" class="css-1uu1fpi" width="24"  height="24" ><defs><symbol viewBox="0 0 24 24" id="savings-dual-g"><path fill-rule="evenodd" clip-rule="evenodd" d="M16 16C19.3137 16 22 13.3137 22 10C22 6.68629 19.3137 4 16 4C13.913 4 12.0749 5.06551 11 6.6822V13.3178C12.0749 14.9345 13.913 16 16 16Z" fill="#76808F"></path><path fill-rule="evenodd" clip-rule="evenodd" d="M8 4C11.3137 4 14 6.68629 14 10C14 13.3137 11.3137 16 8 16C4.68629 16 2 13.3137 2 10C2 6.68629 4.68629 4 8 4ZM8 12.5L5.5 10L8 7.5L10.5 10L8 12.5Z" fill="url(&quot;#paint0_linear&quot;)"></path><rect x="2" y="18" width="20" height="2" fill="#76808F"></rect><defs><linearGradient id="paint0_linear" x1="8" y1="16" x2="8" y2="4" gradientUnits="userSpaceOnUse"><stop stop-color="#F0B90B"></stop><stop offset="1" stop-color="#F8D33A"></stop></linearGradient></defs></symbol></defs><use xlink:href="#savings-dual-g" fill="#1E2329"></use></svg>