<svg xmlns:xlink="http://www.w3.org/1999/xlink" xmlns="http://www.w3.org/2000/svg" fill="currentColor" class="css-1uu1fpi" width="24"  height="24" ><defs><symbol viewBox="0 0 24 24" id="p2p-g"><g><path fill-rule="evenodd" clip-rule="evenodd" d="M6.5 3a3 3 0 1 1 0 6 3 3 0 0 1 0-6z" fill="url(&quot;#paint0_linear&quot;)"></path><path fill-rule="evenodd" clip-rule="evenodd" d="M17.5 13a3 3 0 1 0 0-6 3 3 0 0 0 0 6z" fill="#76808F"></path><path fill-rule="evenodd" clip-rule="evenodd" d="M2 13a3 3 0 0 1 3-3h3a3 3 0 0 1 3 3v3H2v-3z" fill="#76808F"></path><path fill-rule="evenodd" clip-rule="evenodd" d="M13 17a3 3 0 0 1 3-3h3a3 3 0 0 1 3 3v3h-9v-3z" fill="url(&quot;#paint1_linear&quot;)"></path><path d="M13 4V2h9v4h-2V4h-7z" fill="#76808F"></path><path d="M11 22v-2H4v-2H2v4h9z" fill="#76808F"></path><defs><linearGradient id="paint0_linear" x1="6.5" y1="9" x2="6.5" y2="3" gradientUnits="userSpaceOnUse"><stop stop-color="#F0B90B"></stop><stop offset="1" stop-color="#F8D33A"></stop></linearGradient><linearGradient id="paint1_linear" x1="17.5" y1="20" x2="17.5" y2="14" gradientUnits="userSpaceOnUse"><stop stop-color="#F0B90B"></stop><stop offset="1" stop-color="#F8D33A"></stop></linearGradient></defs></g></symbol></defs><use xlink:href="#p2p-g" fill="#1E2329"></use></svg>