<svg xmlns:xlink="http://www.w3.org/1999/xlink" xmlns="http://www.w3.org/2000/svg" fill="currentColor" class="css-1uu1fpi" width="24"  height="24" ><defs><symbol viewBox="0 0 24 24" id="leaderboard-g"><path d="M6 5H2V10.4104L6 14.4624V11.6344L4 9.58957V7H6V5Z" fill="#76808F"></path><path d="M11.0001 17V20H6.00012V22H18.0001V20H13.0001V17H11.0001Z" fill="#76808F"></path><path fill-rule="evenodd" clip-rule="evenodd" d="M18.0001 14.4624L22 10.4104V5H18.0001V14.4624ZM20 9.58957L18.0001 11.6343V7H20V9.58957Z" fill="#76808F"></path><path d="M6 2V14.4853L7.75736 16.2426C8.84315 17.3284 10.3431 18 12 18C13.6569 18 15.1569 17.3284 16.2426 16.2426L18 14.4853V2H6Z" fill="url(&quot;#paint0_linear_4968_126172&quot;)"></path><defs><linearGradient id="paint0_linear_4968_126172" x1="12" y1="18" x2="12" y2="2" gradientUnits="userSpaceOnUse"><stop stop-color="#F0B90B"></stop><stop offset="1" stop-color="#F8D33A"></stop></linearGradient></defs></symbol></defs><use xlink:href="#leaderboard-g" fill="#1E2329"></use></svg>