<svg xmlns:xlink="http://www.w3.org/1999/xlink" xmlns="http://www.w3.org/2000/svg" fill="currentColor" class="css-1uu1fpi" width="24"  height="24" ><defs><symbol viewBox="0 0 24 24" id="spot-g"><g><path d="M21.5 8.5a6 6 0 1 1-12 0 6 6 0 0 1 12 0z" fill="#76808F"></path><path fill-rule="evenodd" clip-rule="evenodd" d="M8.5 9.5a6 6 0 1 1 0 12 6 6 0 0 1 0-12zm0 8.5L6 15.5 8.5 13l2.5 2.5L8.5 18z" fill="url(&quot;#paint0_linear&quot;)"></path><path d="M9 3H3v6l6-6z" fill="url(&quot;#paint1_linear&quot;)"></path><path d="M15 21h6v-6l-6 6z" fill="url(&quot;#paint2_linear&quot;)"></path><defs><linearGradient id="paint0_linear" x1="8.5" y1="21.5" x2="8.5" y2="9.5" gradientUnits="userSpaceOnUse"><stop stop-color="#F0B90B"></stop><stop offset="1" stop-color="#F8D33A"></stop></linearGradient><linearGradient id="paint1_linear" x1="6" y1="9" x2="6" y2="3" gradientUnits="userSpaceOnUse"><stop stop-color="#F0B90B"></stop><stop offset="1" stop-color="#F8D33A"></stop></linearGradient><linearGradient id="paint2_linear" x1="18" y1="21" x2="18" y2="15" gradientUnits="userSpaceOnUse"><stop stop-color="#F0B90B"></stop><stop offset="1" stop-color="#F8D33A"></stop></linearGradient></defs></g></symbol></defs><use xlink:href="#spot-g" fill="#1E2329"></use></svg>