<svg xmlns:xlink="http://www.w3.org/1999/xlink" xmlns="http://www.w3.org/2000/svg" fill="currentColor" class="css-6px2js" width="24"  height="24" ><defs><symbol viewBox="0 0 24 24" id="trade-f"><path fill-rule="evenodd" clip-rule="evenodd" d="M15.0002 3.5C12.471 3.5 10.3406 5.20717 9.6983 7.53206C13.2833 7.86295 16.1373 10.7169 16.4682 14.3019C18.7931 13.6597 20.5002 11.5292 20.5002 9C20.5002 5.96243 18.0378 3.5 15.0002 3.5ZM14.5 15C14.5 11.9624 12.0376 9.5 9 9.5C5.96243 9.5 3.5 11.9624 3.5 15C3.5 18.0376 5.96243 20.5 9 20.5C12.0376 20.5 14.5 18.0376 14.5 15ZM6.5 15L9 17.5L11.5 15L9 12.5L6.5 15Z" fill="currentColor"></path></symbol></defs><use xlink:href="#trade-f" fill="#848E9C"></use></svg>