<svg xmlns:xlink="http://www.w3.org/1999/xlink" xmlns="http://www.w3.org/2000/svg" fill="currentColor" class="css-1uu1fpi" width="24"  height="24" ><defs><symbol viewBox="0 0 24 24" id="futures-options-european-g"><path fill-rule="evenodd" clip-rule="evenodd" d="M21 2H6V19C6 20.1046 5.10457 21 4 21H19C20.1046 21 21 20.1046 21 19V2ZM11.5 10.5L11.5 7L14 7L10.5 3.5L7 7L9.5 7L9.5 10.5H11.5ZM11.5 12.5H9.5V16H7L10.5 19.5L14 16H11.5L11.5 12.5ZM14.3159 15H19.1717V13.4135H16.0658V12.25H18.7293V10.6731H16.0658V9.58645H19.1717V8H14.3159V15Z" fill="url(&quot;#paint0_linear_1107_26006&quot;)"></path><path d="M11.5 7L11.5 10.5H9.5L9.5 7L7 7L10.5 3.5L14 7L11.5 7Z" fill="#76808F"></path><path d="M9.5 12.5H11.5L11.5 16H14L10.5 19.5L7 16H9.5V12.5Z" fill="#76808F"></path><path d="M14.3159 15H19.1717V13.4135H16.0658V12.25H18.7293V10.6731H16.0658V9.58645H19.1717V8H14.3159V15Z" fill="#76808F"></path><path d="M6 19C6 20.1046 5.10457 21 4 21C2.89543 21 2 20.1046 2 19V12H6V19Z" fill="#76808F"></path><defs><linearGradient id="paint0_linear_1107_26006" x1="12.5" y1="2" x2="12.5" y2="21" gradientUnits="userSpaceOnUse"><stop offset="0.333333" stop-color="#F0B90B"></stop><stop offset="1" stop-color="#FBDA3C"></stop></linearGradient></defs></symbol></defs><use xlink:href="#futures-options-european-g" fill="#1E2329"></use></svg>