<svg xmlns:xlink="http://www.w3.org/1999/xlink" xmlns="http://www.w3.org/2000/svg" fill="currentColor" class="css-1uu1fpi" width="24"  height="24" ><defs><symbol viewBox="0 0 24 24" id="auto-invest"><path fill-rule="evenodd" clip-rule="evenodd" d="M7.07114 6.34315C8.59945 4.81484 9.88191 4 12 4C16.4182 4 20 7.58172 20 12H22C22 6.47715 17.5228 2 12 2C9.14747 2 7.38599 3.19988 5.65693 4.92893L3.82846 6.7574L2 4.92893V10H7.07107L5.24268 8.17161L7.07114 6.34315Z" fill="#76808F"></path><path fill-rule="evenodd" clip-rule="evenodd" d="M16.9289 17.6569C15.4006 19.1852 14.1181 20 12 20C7.58175 20 4.00003 16.4183 4.00003 12H2.00003C2.00003 17.5228 6.47718 22 12 22C14.8525 22 16.614 20.8001 18.3431 19.0711L20.2071 17.2071L22 19V14H17L18.7929 15.7929L16.9289 17.6569Z" fill="#76808F"></path><path fill-rule="evenodd" clip-rule="evenodd" d="M12 16C14.2091 16 16 14.2091 16 12C16 9.79086 14.2091 8 12 8C9.79086 8 8 9.79086 8 12C8 14.2091 9.79086 16 12 16ZM12 13.6L10.4 12L12 10.4L13.6 12L12 13.6Z" fill="url(&quot;#paint0_linear_8486_78758&quot;)"></path><defs><linearGradient id="paint0_linear_8486_78758" x1="12" y1="16" x2="12" y2="8" gradientUnits="userSpaceOnUse"><stop stop-color="#F0B90B"></stop><stop offset="1" stop-color="#F8D33A"></stop></linearGradient></defs></symbol></defs><use xlink:href="#auto-invest" fill="#1E2329"></use></svg>