<svg xmlns:xlink="http://www.w3.org/1999/xlink" xmlns="http://www.w3.org/2000/svg" fill="currentColor" class="css-1uu1fpi" width="24"  height="24" ><defs><symbol viewBox="0 0 24 24" id="otc-g"><path fill-rule="evenodd" clip-rule="evenodd" d="M21 3H15L21 9V3ZM3 21H9L3 15V21Z" fill="#76808F"></path><path fill-rule="evenodd" clip-rule="evenodd" d="M12 5C15.866 5 19 8.13401 19 12C19 15.866 15.866 19 12 19C8.13401 19 5 15.866 5 12C5 8.13401 8.13401 5 12 5ZM12 15L9 12L12 9L15 12L12 15Z" fill="url(&quot;#paint0_linear_2611_147362&quot;)"></path><path d="M15 21H21V15L15 21Z" fill="url(&quot;#paint1_linear_2611_147362&quot;)"></path><path d="M9 3H3V9L9 3Z" fill="url(&quot;#paint2_linear_2611_147362&quot;)"></path><defs><linearGradient id="paint0_linear_2611_147362" x1="12" y1="5" x2="12" y2="19" gradientUnits="userSpaceOnUse"><stop stop-color="#F0B90B"></stop><stop offset="1" stop-color="#F8D33A"></stop></linearGradient><linearGradient id="paint1_linear_2611_147362" x1="18" y1="15" x2="18" y2="21" gradientUnits="userSpaceOnUse"><stop stop-color="#F0B90B"></stop><stop offset="1" stop-color="#F8D33A"></stop></linearGradient><linearGradient id="paint2_linear_2611_147362" x1="6" y1="3" x2="6" y2="9" gradientUnits="userSpaceOnUse"><stop stop-color="#F0B90B"></stop><stop offset="1" stop-color="#F8D33A"></stop></linearGradient></defs></symbol></defs><use xlink:href="#otc-g" fill="#1E2329"></use></svg>