<svg xmlns:xlink="http://www.w3.org/1999/xlink" xmlns="http://www.w3.org/2000/svg" fill="currentColor" class="css-1uu1fpi" width="96"  height="96" ><defs><symbol viewBox="0 0 96 96" id="custody-g"><path fill-rule="evenodd" clip-rule="evenodd" d="M76 84H12V40H76V57L81 62L76 67V84ZM48 50V74H40V50H48Z" fill="url(&quot;#paint0_linear_7251_12&quot;)"></path><path fill-rule="evenodd" clip-rule="evenodd" d="M72 76C79.732 76 86 69.732 86 62C86 54.268 79.732 48 72 48C65.658 48 60.3009 52.217 58.5798 58L40 58V74H48L48 66L58.5798 66C60.3009 71.783 65.658 76 72 76ZM66 62L72 68L78 62L72 56L66 62Z" fill="#76808F"></path><path d="M72 20L76 24L80 20L76 16L72 20Z" fill="#E6E8EA"></path><path d="M85 79.5L87.5 82L90 79.5L87.5 77L85 79.5Z" fill="#E6E8EA"></path><path d="M5 53H8V50H5V53Z" fill="#E6E8EA"></path><path fill-rule="evenodd" clip-rule="evenodd" d="M44 18C37.9249 18 33 22.9249 33 29V40H25V29C25 18.5066 33.5066 10 44 10C54.4934 10 63 18.5066 63 29V30H55V29C55 22.9249 50.0751 18 44 18Z" fill="#76808F"></path><defs><linearGradient id="paint0_linear_7251_12" x1="46.5" y1="84" x2="46.5" y2="40" gradientUnits="userSpaceOnUse"><stop stop-color="#F0B90B"></stop><stop offset="1" stop-color="#F8D33A"></stop></linearGradient></defs></symbol></defs><use xlink:href="#custody-g" fill="#1E2329"></use></svg>