<svg xmlns:xlink="http://www.w3.org/1999/xlink" xmlns="http://www.w3.org/2000/svg" fill="currentColor" class="css-1uu1fpi" width="24"  height="24" ><defs><symbol viewBox="0 0 24 24" id="battle-g"><g><path d="M18 3h3v3L9.5 17.5l-3-3L18 3z" fill="#76808F"></path><path d="M6 3H3v3l11.5 11.5 3-3L6 3z" fill="#76808F"></path><path d="M15.5 17.5l2-2L22 20l-2 2-4.5-4.5z" fill="url(&quot;#paint0_linear&quot;)"></path><path fill-rule="evenodd" clip-rule="evenodd" d="M14.207 20.207l6-6-1.414-1.414-6 6 1.414 1.414z" fill="url(&quot;#paint1_linear&quot;)"></path><path d="M18 3h3v3L9.5 17.5l-3-3L18 3z" fill="url(&quot;#paint2_linear&quot;)"></path><path d="M8.5 17.5l-2-2L2 20l2 2 4.5-4.5z" fill="#76808F"></path><path fill-rule="evenodd" clip-rule="evenodd" d="M9.793 20.207l-6-6 1.414-1.414 6 6-1.414 1.414z" fill="#76808F"></path><path d="M14 2l1 1-1 1-1-1 1-1z" fill="#76808F"></path><path d="M3 9l1 1-1 1-1-1 1-1z" fill="#76808F"></path><path d="M19 10.5L20.5 9l1.5 1.5-1.5 1.5-1.5-1.5z" fill="#76808F"></path><defs><linearGradient id="paint0_linear" x1="18.75" y1="15.5" x2="18.75" y2="22" gradientUnits="userSpaceOnUse"><stop stop-color="#F0B90B"></stop><stop offset="1" stop-color="#F8D33A"></stop></linearGradient><linearGradient id="paint1_linear" x1="16.5" y1="12.793" x2="16.5" y2="20.207" gradientUnits="userSpaceOnUse"><stop stop-color="#F0B90B"></stop><stop offset="1" stop-color="#F8D33A"></stop></linearGradient><linearGradient id="paint2_linear" x1="13.75" y1="17.5" x2="13.75" y2="3" gradientUnits="userSpaceOnUse"><stop stop-color="#F0B90B"></stop><stop offset="1" stop-color="#F8D33A"></stop></linearGradient></defs></g></symbol></defs><use xlink:href="#battle-g" fill="#1E2329"></use></svg>