<svg xmlns:xlink="http://www.w3.org/1999/xlink" xmlns="http://www.w3.org/2000/svg" fill="currentColor" class="css-1uu1fpi" width="24"  height="24" ><defs><symbol viewBox="0 0 24 24" id="bab-token-g"><path fill-rule="evenodd" clip-rule="evenodd" d="M9.5 3.00012H12H14.5L21 9.50012V14.5001L14.5 21.0001H12H9.5L3 14.5001V9.50012L9.5 3.00012Z" fill="url(&quot;#paint0_linear_5116_130596&quot;)"></path><path fill-rule="evenodd" clip-rule="evenodd" d="M12 17.0001C14.7614 17.0001 17 14.7615 17 12.0001C17 9.2387 14.7614 7.00012 12 7.00012C9.23858 7.00012 7 9.2387 7 12.0001C7 14.7615 9.23858 17.0001 12 17.0001ZM8.71291 12.3573L11.0107 14.6611L15.1971 10.4806L14.3429 9.62646L11.0107 12.9588L9.56097 11.5092L8.71291 12.3573Z" fill="#76808F"></path><defs><linearGradient id="paint0_linear_5116_130596" x1="12" y1="3.00012" x2="12" y2="21.0001" gradientUnits="userSpaceOnUse"><stop stop-color="#F0B90B"></stop><stop offset="1" stop-color="#F8D33A"></stop></linearGradient></defs></symbol></defs><use xlink:href="#bab-token-g" fill="#1E2329"></use></svg>