<svg xmlns:xlink="http://www.w3.org/1999/xlink" xmlns="http://www.w3.org/2000/svg" fill="currentColor" class="css-1uu1fpi" width="24"  height="24" ><defs><symbol viewBox="0 0 24 24" id="piggy-bank"><path fill-rule="evenodd" clip-rule="evenodd" d="M1 14H3.15003C3.4738 15.595 4.30376 17.0062 5.46493 18.0587L6.14248 18.7362L4.37868 20.5L6.5 22.6214L9.12135 20H14.9999L17.5 22.5001L19.6213 20.3787L18.1213 18.8787L23 14V11H20.85C20.6005 9.77089 20.0504 8.65093 19.2798 7.72018L22 5H10.5C6.52588 5 3.2737 8.09098 3.0164 12H1V14ZM18 12C18.5523 12 19 11.5523 19 11C19 10.4477 18.5523 10 18 10C17.4477 10 17 10.4477 17 11C17 11.5523 17.4477 12 18 12Z" fill="#76808E"></path><path fill-rule="evenodd" clip-rule="evenodd" d="M12 11C14.7614 11 17 8.76142 17 6C17 3.23858 14.7614 1 12 1C9.23858 1 7 3.23858 7 6C7 8.76142 9.23858 11 12 11ZM12 8L10 6L12 4L14 6L12 8Z" fill="url(&quot;#paint0_linear_9022_83782&quot;)"></path><path d="M12 8L10 6L12 4L14 6L12 8Z" fill="#76808E"></path><defs><linearGradient id="paint0_linear_9022_83782" x1="12" y1="11" x2="12" y2="1" gradientUnits="userSpaceOnUse"><stop stop-color="#F0B90B"></stop><stop offset="1" stop-color="#F8D33A"></stop></linearGradient></defs></symbol></defs><use xlink:href="#piggy-bank" fill="#1E2329"></use></svg>