<svg xmlns:xlink="http://www.w3.org/1999/xlink" xmlns="http://www.w3.org/2000/svg" fill="currentColor" class="css-1uu1fpi" width="24"  height="24" ><defs><symbol viewBox="0 0 24 24" id="earn-staking-g"><path d="M18 6C18 4.34315 16.6569 3 15 3C13.3431 3 12 4.34315 12 6C12 7.65685 13.3431 9 15 9C16.6569 9 18 7.65685 18 6Z" fill="url(&quot;#paint0_linear_7105_37458&quot;)"></path><path d="M9 13C9 12.4477 8.55228 12 8 12C7.44772 12 7 12.4477 7 13C7 13.5523 7.44772 14 8 14C8.55228 14 9 13.5523 9 13Z" fill="url(&quot;#paint1_linear_7105_37458&quot;)"></path><path fill-rule="evenodd" clip-rule="evenodd" d="M21 15.5C21 18.5376 18.5376 21 15.5 21C12.4624 21 10 18.5376 10 15.5C10 12.4624 12.4624 10 15.5 10C18.5376 10 21 12.4624 21 15.5ZM13 15.5L15.5 18L18 15.5L15.5 13L13 15.5Z" fill="url(&quot;#paint2_linear_7105_37458&quot;)"></path><path fill-rule="evenodd" clip-rule="evenodd" d="M11 7C11 9.20914 9.20914 11 7 11C4.79086 11 3 9.20914 3 7C3 4.79086 4.79086 3 7 3C9.20914 3 11 4.79086 11 7ZM5.5 7L7 5.5L8.5 7L7 8.5L5.5 7Z" fill="#76808F"></path><path d="M21 9C21 9.55228 20.5523 10 20 10C19.4477 10 19 9.55228 19 9C19 8.44772 19.4477 8 20 8C20.5523 8 21 8.44772 21 9Z" fill="#76808F"></path><path d="M9 18C9 19.6569 7.65685 21 6 21C4.34315 21 3 19.6569 3 18C3 16.3431 4.34315 15 6 15C7.65685 15 9 16.3431 9 18Z" fill="#76808F"></path><defs><linearGradient id="paint0_linear_7105_37458" x1="14" y1="21" x2="14" y2="3" gradientUnits="userSpaceOnUse"><stop stop-color="#F0B90B"></stop><stop offset="1" stop-color="#F8D33A"></stop></linearGradient><linearGradient id="paint1_linear_7105_37458" x1="14" y1="21" x2="14" y2="3" gradientUnits="userSpaceOnUse"><stop stop-color="#F0B90B"></stop><stop offset="1" stop-color="#F8D33A"></stop></linearGradient><linearGradient id="paint2_linear_7105_37458" x1="14" y1="21" x2="14" y2="3" gradientUnits="userSpaceOnUse"><stop stop-color="#F0B90B"></stop><stop offset="1" stop-color="#F8D33A"></stop></linearGradient></defs></symbol></defs><use xlink:href="#earn-staking-g" fill="#1E2329"></use></svg>