<svg xmlns:xlink="http://www.w3.org/1999/xlink" xmlns="http://www.w3.org/2000/svg" fill="currentColor" class="css-6px2js" width="24"  height="24" ><defs><symbol viewBox="0 0 24 24" id="piggy-bank-f"><path fill-rule="evenodd" clip-rule="evenodd" d="M12.0135 1C9.30088 1 7.10183 3.19905 7.10183 5.91171C7.10183 6.83267 7.3553 7.69443 7.79628 8.43103C5.55306 9.4109 3.95023 11.5837 3.7896 14.1476H2V15.9337H3.91462C4.26878 17.6501 5.27957 19.1265 6.67276 20.0888L5.02451 21.7371L6.28746 23L8.3573 20.9302C9.023 21.1518 9.73515 21.2719 10.4753 21.2719H15.7789L17.3705 22.8635L18.6334 21.6006L17.2935 20.2606L21.6429 15.9112L21.6429 13.2243H19.7091C19.5089 12.122 19.0149 11.1221 18.311 10.3087L20.7459 7.87386H16.5177C16.7798 7.27288 16.9252 6.60927 16.9252 5.91171C16.9252 3.19905 14.7262 1 12.0135 1ZM8.88791 5.91171C8.88791 4.18547 10.2873 2.78608 12.0135 2.78608C13.7398 2.78608 15.1392 4.18547 15.1392 5.91171C15.1392 7.63795 13.7398 9.03734 12.0135 9.03734C10.2873 9.03734 8.88791 7.63795 8.88791 5.91171ZM10.674 5.91171L12.0135 4.57215L13.3531 5.91171L12.0135 7.25127L10.674 5.91171ZM9.7484 13.2344H14.2787V11.4484H9.7484V13.2344Z" fill="currentColor"></path></symbol></defs><use xlink:href="#piggy-bank-f" fill="#848E9C"></use></svg>