<svg xmlns:xlink="http://www.w3.org/1999/xlink" xmlns="http://www.w3.org/2000/svg" fill="currentColor" class="css-1uu1fpi" width="24"  height="24" ><defs><symbol viewBox="0 0 24 24" id="blog-g"><path fill-rule="evenodd" clip-rule="evenodd" d="M22.0002 5.99988L2.00024 5.99988L2.00024 19.9999L22.0002 19.9999L22.0002 5.99988ZM4.00024 9.99988L20.0002 9.99988L20.0002 7.99988L4.00024 7.99988L4.00024 9.99988ZM12.0002 11.9999L20.0002 11.9999L20.0002 13.9999L12.0002 13.9999L12.0002 11.9999ZM12.0002 15.9999L16.0002 15.9999L16.0002 17.9999L12.0002 17.9999L12.0002 15.9999ZM4.00024 11.9999L10.0002 11.9999L10.0002 17.9999L4.00024 17.9999L4.00024 11.9999Z" fill="url(&quot;#paint0_linear_7_39&quot;)"></path><path d="M2 3.99805L22 3.99805L22 5.99805L2 5.99805L2 3.99805Z" fill="#76808F"></path><defs><linearGradient id="paint0_linear_7_39" x1="2.00024" y1="12.9999" x2="22.0002" y2="12.9999" gradientUnits="userSpaceOnUse"><stop stop-color="#F0B90B"></stop><stop offset="1" stop-color="#F8D33A"></stop></linearGradient></defs></symbol></defs><use xlink:href="#blog-g" fill="#1E2329"></use></svg>