<svg xmlns:xlink="http://www.w3.org/1999/xlink" xmlns="http://www.w3.org/2000/svg" fill="currentColor" class="css-1uu1fpi" width="24"  height="24" ><defs><symbol viewBox="0 0 24 24" id="margin-g"><g><path d="M21 3v8l-3.293-3.293L4.414 21 3 19.586 16.293 6.293 13 3h8z" fill="url(&quot;#linerxxxx0&quot;)"></path><path fill-rule="evenodd" clip-rule="evenodd" d="M6.5 11a4.5 4.5 0 1 0 0-9 4.5 4.5 0 0 0 0 9zm0-6.5l-2 2 2 2 2-2-2-2z" fill="url(&quot;#linerxxxx1&quot;)"></path><path fill-rule="evenodd" clip-rule="evenodd" d="M17.5 22a4.5 4.5 0 1 0 0-9 4.5 4.5 0 0 0 0 9zm0-6.5l-2 2 2 2 2-2-2-2z" fill="url(&quot;#linerxxxx2&quot;)"></path><defs><linearGradient id="linerxxxx0" x1="12" y1="3" x2="12" y2="21" gradientUnits="userSpaceOnUse"><stop stop-color="#929AA5"></stop><stop offset="1" stop-color="#76808F"></stop></linearGradient><linearGradient id="linerxxxx1" x1="6.5" y1="11" x2="6.5" y2="2" gradientUnits="userSpaceOnUse"><stop stop-color="#F0B90B"></stop><stop offset="1" stop-color="#F8D33A"></stop></linearGradient><linearGradient id="linerxxxx2" x1="17.5" y1="22" x2="17.5" y2="13" gradientUnits="userSpaceOnUse"><stop stop-color="#F0B90B"></stop><stop offset="1" stop-color="#F8D33A"></stop></linearGradient></defs></g></symbol></defs><use xlink:href="#margin-g" fill="#1E2329"></use></svg>