<svg xmlns:xlink="http://www.w3.org/1999/xlink" xmlns="http://www.w3.org/2000/svg" fill="currentColor" class="css-1uu1fpi" width="24"  height="24" ><defs><symbol viewBox="0 0 24 24" id="earn-eth2"><circle cx="12" cy="12" r="10" fill="url(&quot;#paint0_linear_11883_82856&quot;)"></circle><path d="M12 15.5365V19.0194L16.2867 13.0002L12 15.5365Z" fill="#76808F"></path><g style="mix-blend-mode:soft-light" opacity="0.6"><path d="M12 15.5365V19.0194L16.2867 13.0002L12 15.5365Z" fill="url(&quot;#paint1_linear_11883_82856&quot;)"></path></g><path d="M12 10.1616V14.6448L16.2867 12.1085L12 10.1616Z" fill="#76808F"></path><g style="mix-blend-mode:soft-light" opacity="0.6"><path d="M12 10.1616V14.6448L16.2867 12.1085L12 10.1616Z" fill="url(&quot;#paint2_linear_11883_82856&quot;)"></path></g><path d="M12 4.99969V10.1616L16.2867 12.1085L12 4.99969Z" fill="#76808F"></path><path d="M11.9996 15.5365V19.0194L7.71289 13.0002L11.9996 15.5365Z" fill="#76808F"></path><path d="M11.9996 10.1616V14.6448L7.71289 12.1085L11.9996 10.1616Z" fill="#76808F"></path><g style="mix-blend-mode:soft-light" opacity="0.2"><path d="M11.9996 10.1616V14.6448L7.71289 12.1085L11.9996 10.1616Z" fill="url(&quot;#paint3_linear_11883_82856&quot;)"></path></g><path d="M11.9996 4.99969V10.1616L7.71289 12.1085L11.9996 4.99969Z" fill="#76808F"></path><g style="mix-blend-mode:soft-light" opacity="0.5"><path d="M12.0004 4.99969V10.1616L16.2871 12.1085L12.0004 4.99969Z" fill="url(&quot;#paint4_linear_11883_82856&quot;)"></path></g><defs><linearGradient id="paint0_linear_11883_82856" x1="12" y1="2" x2="12" y2="22" gradientUnits="userSpaceOnUse"><stop stop-color="#F8D33A"></stop><stop offset="1" stop-color="#F0B90B"></stop></linearGradient><linearGradient id="paint1_linear_11883_82856" x1="14.1434" y1="13.0002" x2="14.1434" y2="19.0194" gradientUnits="userSpaceOnUse"><stop></stop><stop offset="1" stop-opacity="0"></stop></linearGradient><linearGradient id="paint2_linear_11883_82856" x1="14.1434" y1="10.1616" x2="14.1434" y2="14.6448" gradientUnits="userSpaceOnUse"><stop></stop><stop offset="1" stop-opacity="0"></stop></linearGradient><linearGradient id="paint3_linear_11883_82856" x1="9.85625" y1="10.1616" x2="9.85625" y2="14.6448" gradientUnits="userSpaceOnUse"><stop></stop><stop offset="1" stop-opacity="0"></stop></linearGradient><linearGradient id="paint4_linear_11883_82856" x1="14.1438" y1="4.99969" x2="14.1438" y2="12.1085" gradientUnits="userSpaceOnUse"><stop></stop><stop offset="1" stop-opacity="0"></stop></linearGradient></defs></symbol></defs><use xlink:href="#earn-eth2" fill="#1E2329"></use></svg>