<svg xmlns:xlink="http://www.w3.org/1999/xlink" xmlns="http://www.w3.org/2000/svg" fill="currentColor" class="css-1uu1fpi" width="24"  height="24" ><defs><symbol viewBox="0 0 24 24" id="liquid-swap-g"><g><path fill-rule="evenodd" clip-rule="evenodd" d="M12 8a4 4 0 1 1 0 8 4 4 0 0 1 0-8zm0 5.714L10.286 12 12 10.286 13.714 12 12 13.714z" fill="url(&quot;#paint0_linear&quot;)"></path><path d="M1 11c0-1.38.595-2.595 1.5-3.5C3.405 6.595 4.62 6 6 6v8.5L3.5 17 1 14.5V11z" fill="#76808F"></path><path d="M23 13c0 1.38-.595 2.595-1.5 3.5-.905.905-2.12 1.5-3.5 1.5V9.5L20.5 7 23 9.5V13z" fill="#76808F"></path><path d="M2.464 7.535c.905-.905 2.12-1.5 3.5-1.5h9v-5h-3.93A5 5 0 0 0 7.5 2.5L2.464 7.535z" fill="url(&quot;#paint1_linear&quot;)"></path><path d="M21.5 16.5c-.905.905-2.12 1.5-3.5 1.5H9v5h3.929a5 5 0 0 0 3.535-1.465L21.5 16.5z" fill="url(&quot;#paint2_linear&quot;)"></path><defs><linearGradient id="paint0_linear" x1="12" y1="16" x2="12" y2="8" gradientUnits="userSpaceOnUse"><stop stop-color="#F0B90B"></stop><stop offset="1" stop-color="#F8D33A"></stop></linearGradient><linearGradient id="paint1_linear" x1="8.714" y1="7.535" x2="8.714" y2="1.035" gradientUnits="userSpaceOnUse"><stop stop-color="#F0B90B"></stop><stop offset="1" stop-color="#F8D33A"></stop></linearGradient><linearGradient id="paint2_linear" x1="15.25" y1="16.5" x2="15.25" y2="23" gradientUnits="userSpaceOnUse"><stop stop-color="#F0B90B"></stop><stop offset="1" stop-color="#F8D33A"></stop></linearGradient></defs></g></symbol></defs><use xlink:href="#liquid-swap-g" fill="#1E2329"></use></svg>