<svg xmlns:xlink="http://www.w3.org/1999/xlink" xmlns="http://www.w3.org/2000/svg" fill="currentColor" class="css-1uu1fpi" width="24"  height="24" ><defs><symbol viewBox="0 0 24 24" id="futures-g"><g><path d="M6 2h15v17a2 2 0 0 1-2 2H4l2-2V2z" fill="url(&quot;#paint0_linear&quot;)"></path><path d="M4 21a2 2 0 0 0 2-2v-7H2v7a2 2 0 0 0 2 2z" fill="#76808F"></path><path d="M9 16h9v2H9v-2z" fill="#76808F"></path><path d="M18 5v7.5l-3.043-3.043L10.414 14 9 12.586l4.543-4.543L10.5 5H18z" fill="#76808F"></path><defs><linearGradient id="paint0_linear" x1="12.5" y1="21" x2="12.5" y2="2" gradientUnits="userSpaceOnUse"><stop stop-color="#F0B90B"></stop><stop offset="1" stop-color="#F8D33A"></stop></linearGradient></defs></g></symbol></defs><use xlink:href="#futures-g" fill="#1E2329"></use></svg>