<svg xmlns:xlink="http://www.w3.org/1999/xlink" xmlns="http://www.w3.org/2000/svg" fill="currentColor" class="css-1uu1fpi" width="24"  height="24" ><defs><symbol viewBox="0 0 24 24" id="asset-management-solution-g"><g clip-path="url(#clip0_42197_26753)"><path fill-rule="evenodd" clip-rule="evenodd" d="M14.9874 4.3911L17.0535 5.58574L19.7249 5.4254L21.543 8.57458L20.0691 10.8069V13.1931L21.543 15.4254L19.7249 18.5746L17.0535 18.4143L14.9874 19.6089L13.7918 22H10.1555L8.95993 19.6089L6.89381 18.4142L4.22248 18.5746L2.4043 15.4254L3.87821 13.1931V10.8069L2.4043 8.5746L4.22248 5.42542L6.89381 5.58576L8.95993 4.3911L10.1555 2H13.7918L14.9874 4.3911ZM11.9975 6.54574C15.01 6.54574 17.4521 8.98782 17.4521 12.0003C17.4521 15.0127 15.01 17.4548 11.9975 17.4548C8.98505 17.4548 6.54297 15.0127 6.54297 12.0003C6.54297 8.98782 8.98505 6.54574 11.9975 6.54574Z" fill="url(&quot;#paint0_linear_42197_26753&quot;)"></path><path d="M9.27002 12.0002L11.9973 9.27295L14.7246 12.0002L11.9973 14.7275L9.27002 12.0002Z" fill="#76808F"></path><circle r="5.83333" transform="matrix(1 0 0 -1 11.9998 12.0002)" fill="#76808F"></circle><path d="M12.6345 16.6668V15.6274C14.0746 15.3892 14.7459 14.4905 14.7459 13.4294C14.7459 12.325 14.0205 11.7078 12.5046 11.3613V9.56397C13.0243 9.68307 13.3708 9.92128 13.6307 10.2136L14.616 9.32576C14.1396 8.78439 13.5007 8.44873 12.6345 8.35128V7.3335H12.0174H11.4002V8.35128C10.0034 8.5137 9.25635 9.27162 9.25635 10.4085C9.25635 11.4588 9.91683 12.1734 11.541 12.5091V14.458C10.9346 14.3714 10.4257 14.079 10.0143 13.6459L9.03979 14.5338C9.58117 15.1293 10.3066 15.5732 11.4002 15.6707V16.6668H12.6345ZM10.7505 10.3652C10.7505 9.94293 10.9888 9.65059 11.541 9.54231V11.1448C10.9888 10.9932 10.7505 10.7767 10.7505 10.3652ZM13.2517 13.5485C13.2517 13.9599 13.0135 14.2956 12.5046 14.4364V12.7256C13.1218 12.9097 13.2517 13.2345 13.2517 13.5485Z" fill="url(&quot;#paint1_linear_42197_26753&quot;)"></path></g><defs><linearGradient id="paint0_linear_42197_26753" x1="11.9737" y1="22" x2="11.9737" y2="2" gradientUnits="userSpaceOnUse"><stop stop-color="#F0B90B"></stop><stop offset="1" stop-color="#F8D33A"></stop></linearGradient><linearGradient id="paint1_linear_42197_26753" x1="11.8928" y1="7.3335" x2="11.8928" y2="16.6668" gradientUnits="userSpaceOnUse"><stop stop-color="#F0B90B"></stop><stop offset="1" stop-color="#F8D33A"></stop></linearGradient><clipPath id="clip0_42197_26753"><rect width="24" height="24" fill="white"></rect></clipPath></defs></symbol></defs><use xlink:href="#asset-management-solution-g" fill="#1E2329"></use></svg>