<svg xmlns:xlink="http://www.w3.org/1999/xlink" xmlns="http://www.w3.org/2000/svg" viewBox="0 0 24 24" fill="none" class="css-knosvp" width="30"  height="30" ><path fill-rule="evenodd" clip-rule="evenodd" d="M15.894 2c.14 1.212-.365 2.405-1.104 3.283-.77.864-2.004 1.524-3.204 1.439-.157-1.165.451-2.405 1.132-3.161.77-.86 2.107-1.517 3.176-1.561zm3.839 6.509c-.142.08-2.354 1.34-2.33 3.902.028 3.102 2.857 4.127 2.89 4.138-.016.072-.443 1.48-1.502 2.908-.886 1.258-1.815 2.488-3.288 2.51-.7.016-1.174-.176-1.667-.375-.514-.208-1.05-.425-1.889-.425-.888 0-1.448.224-1.988.44-.467.186-.918.367-1.555.392-1.403.05-2.476-1.343-3.394-2.59-1.833-2.544-3.261-7.173-1.347-10.322.928-1.545 2.62-2.54 4.428-2.566.796-.016 1.56.276 2.23.531.512.196.969.37 1.343.37.329 0 .773-.167 1.291-.362.816-.308 1.813-.684 2.83-.583.695.02 2.675.26 3.951 2.03l-.003.002z" fill="#1E2329"></path></svg>