<svg xmlns:xlink="http://www.w3.org/1999/xlink" xmlns="http://www.w3.org/2000/svg" fill="currentColor" class="css-1uu1fpi" width="24"  height="24" ><defs><symbol viewBox="0 0 24 24" id="vip-loan-g"><path fill-rule="evenodd" clip-rule="evenodd" d="M7.73236 4.7677C10.8983 4.7677 13.4647 7.33417 13.4647 10.5001C13.4647 13.666 10.8983 16.2324 7.73236 16.2324C4.56647 16.2324 2 13.666 2 10.5001C2 7.33417 4.56647 4.7677 7.73236 4.7677ZM7.73236 12.9568L5.27563 10.5001L7.73236 8.04333L10.1891 10.5001L7.73236 12.9568Z" fill="url(&quot;#paint0_linear_34040_26824&quot;)"></path><path d="M2 10.625H22V22H5C3.34315 22 2 20.6569 2 19V10.625Z" fill="#76808F"></path><rect x="17" y="14.2324" width="5" height="4" fill="#F6CB2B"></rect><path fill-rule="evenodd" clip-rule="evenodd" d="M18.0087 1.8927C20.213 1.8927 21.9999 3.6796 21.9999 5.88385C21.9999 8.0881 20.213 9.875 18.0087 9.875C15.8045 9.875 14.0176 8.0881 14.0176 5.88385C14.0176 3.6796 15.8045 1.8927 18.0087 1.8927ZM18.0087 7.59434L16.2982 5.88385L18.0087 4.17336L19.7192 5.88385L18.0087 7.59434Z" fill="url(&quot;#paint1_linear_34040_26824&quot;)"></path><defs><linearGradient id="paint0_linear_34040_26824" x1="7.73236" y1="16.2324" x2="7.73236" y2="4.7677" gradientUnits="userSpaceOnUse"><stop stop-color="#F0B90B"></stop><stop offset="1" stop-color="#F8D33A"></stop></linearGradient><linearGradient id="paint1_linear_34040_26824" x1="18.0087" y1="9.875" x2="18.0087" y2="1.8927" gradientUnits="userSpaceOnUse"><stop stop-color="#F0B90B"></stop><stop offset="1" stop-color="#F8D33A"></stop></linearGradient></defs></symbol></defs><use xlink:href="#vip-loan-g" fill="#1E2329"></use></svg>