<svg xmlns:xlink="http://www.w3.org/1999/xlink" xmlns="http://www.w3.org/2000/svg" fill="currentColor" class="css-1uu1fpi" width="24"  height="24" ><defs><symbol viewBox="0 0 24 24" id="labs-g"><g><path d="M10 17.171a6.002 6.002 0 0 1 4-5.658V7h4v4.513c2.33.823 4 3.046 4 5.658H10z" fill="url(&quot;#paint0_linear&quot;)"></path><path d="M11.586 5.828L8.757 3l-6 6h5.657l3.172-3.172z" fill="url(&quot;#paint1_linear&quot;)"></path><path d="M14.272 1l-2 2 2 2 2-2-2-2z" fill="#76808F"></path><path d="M22 5h-2v2h2V5z" fill="#76808F"></path><path d="M8.414 9l-4 4a2 2 0 0 1-2.828-2.828L2.757 9h5.657z" fill="#76808F"></path><path d="M16 23.171a6 6 0 0 0 6-6H10a6 6 0 0 0 6 6z" fill="#76808F"></path><path d="M10.272 10l1-1 1 1-1 1-1-1z" fill="#76808F"></path><defs><linearGradient id="paint0_linear" x1="16" y1="17.171" x2="16" y2="7" gradientUnits="userSpaceOnUse"><stop stop-color="#F0B90B"></stop><stop offset="1" stop-color="#F8D33A"></stop></linearGradient><linearGradient id="paint1_linear" x1="7.172" y1="9" x2="7.172" y2="3" gradientUnits="userSpaceOnUse"><stop stop-color="#F0B90B"></stop><stop offset="1" stop-color="#F8D33A"></stop></linearGradient></defs></g></symbol></defs><use xlink:href="#labs-g" fill="#1E2329"></use></svg>