<svg xmlns:xlink="http://www.w3.org/1999/xlink" xmlns="http://www.w3.org/2000/svg" fill="currentColor" class="css-1uu1fpi" width="24"  height="24" ><defs><symbol viewBox="0 0 24 24" id="reponsible-trading-g"><path d="M21 17V3H3V17L12 23L21 17Z" fill="url(&quot;#paint0_linear&quot;)"></path><path d="M12 5C13.933 5 15.5 6.567 15.5 8.5C15.5 10.433 13.933 12 12 12C10.067 12 8.5 10.433 8.5 8.5C8.5 6.567 10.067 5 12 5Z" fill="#76808F"></path><path d="M8.11111 14C6.39289 14 5 15.3929 5 17.1111V18.3333L12 23L19 18.3333V17.1111C19 15.3929 17.6071 14 15.8889 14H14.5L12 16.5L9.5 14H8.11111Z" fill="#76808F"></path><defs><linearGradient id="paint0_linear" x1="12" y1="23" x2="12" y2="3" gradientUnits="userSpaceOnUse"><stop stop-color="#F0B90B"></stop><stop offset="1" stop-color="#F8D33A"></stop></linearGradient></defs></symbol></defs><use xlink:href="#reponsible-trading-g" fill="#1E2329"></use></svg>