<svg xmlns:xlink="http://www.w3.org/1999/xlink" xmlns="http://www.w3.org/2000/svg" fill="currentColor" class="css-6px2js" width="24"  height="25" ><defs><symbol viewBox="0 0 24 25" id="feed-f"><path fill-rule="evenodd" clip-rule="evenodd" d="M2.99976 3.5H21.0001V19.5H10.9998L6.99976 23.5V19.5H2.99976V3.5ZM8.2224 8.16968C12.365 8.16968 15.7233 11.528 15.7233 15.6706L17.7233 15.6706C17.7233 10.4234 13.4696 6.16968 8.2224 6.16968V8.16968ZM11.7224 15.6706C11.7224 13.7376 10.1554 12.1706 8.2224 12.1706V10.1706C11.26 10.1706 13.7224 12.6331 13.7224 15.6706L11.7224 15.6706ZM8.22229 17.1708C9.05072 17.1708 9.72229 16.4993 9.72229 15.6708C9.72229 14.8424 9.05072 14.1708 8.22229 14.1708C7.39386 14.1708 6.72229 14.8424 6.72229 15.6708C6.72229 16.4993 7.39386 17.1708 8.22229 17.1708Z" fill="currentColor"></path></symbol></defs><use xlink:href="#feed-f" fill="#848E9C"></use></svg>