<svg xmlns:xlink="http://www.w3.org/1999/xlink" xmlns="http://www.w3.org/2000/svg" viewBox="0 0 24 24" fill="none" class="css-knosvp" width="30"  height="30" ><path d="M17.543 14.1a1 1 0 01-.997-.997 1 1 0 01.997-.997 1 1 0 01.997.997 1 1 0 01-.997.997zm-11.05 0a1 1 0 01-.996-.997 1 1 0 01.997-.997 1 1 0 01.997.997.993.993 0 01-.997.997zM17.9 8.082l1.994-3.458a.409.409 0 00-.155-.567.409.409 0 00-.567.156l-2.022 3.503a12.354 12.354 0 00-5.14-1.098c-1.857 0-3.594.394-5.14 1.098L4.848 4.213a.419.419 0 00-.568-.156.419.419 0 00-.155.567l1.994 3.458C2.689 9.948.348 13.423 0 17.52h24c-.32-4.107-2.67-7.583-6.1-9.44z" fill="#1E2329"></path></svg>