<svg xmlns:xlink="http://www.w3.org/1999/xlink" xmlns="http://www.w3.org/2000/svg" fill="currentColor" class="css-1uu1fpi" width="96"  height="96" ><defs><symbol viewBox="0 0 96 96" id="execution-otc-g"><path opacity="0.3" d="M0 3.5L3.5 7L7 3.5L3.5 0L0 3.5Z" fill="#AEB4BC"></path><path opacity="0.3" d="M83.9995 33.7532L88.4995 38.2532L92.9995 33.7532L88.4995 29.2532L83.9995 33.7532Z" fill="#AEB4BC"></path><path opacity="0.3" d="M3 66.751H12V57.751H3V66.751Z" fill="#AEB4BC"></path><circle r="10.5" transform="matrix(1 -2.18557e-08 -2.18557e-08 -1 35.0039 35.0037)" fill="#F8D33A"></circle><circle r="7.1842" transform="matrix(1 -2.18557e-08 -2.18557e-08 -1 35.004 35.0048)" fill="url(&quot;#paint0_linear_47958_27009&quot;)"></circle><path d="M31.1353 35.0037L35.0037 38.8721L38.8721 35.0037L35.0037 31.1352L31.1353 35.0037Z" fill="#F0B90B"></path><circle r="10.5" transform="matrix(1 -2.18557e-08 -2.18557e-08 -1 60.9966 60.9964)" fill="#F8D33A"></circle><circle r="7.1842" transform="matrix(1 -2.18557e-08 -2.18557e-08 -1 60.9967 60.9974)" fill="url(&quot;#paint1_linear_47958_27009&quot;)"></circle><path d="M57.1279 60.9963L60.9963 64.8647L64.8648 60.9963L60.9963 57.1279L57.1279 60.9963Z" fill="#F0B90B"></path><path d="M83.9995 19.002L64.9976 0V12.0025H12.0029V47.501H19.0029V19.0025L83.9995 19.002Z" fill="url(&quot;#paint2_linear_47958_27009&quot;)"></path><path d="M31.002 83.9976H83.9966V48.499H76.9966V76.9976L12 76.9981L31.002 96.0001V83.9976Z" fill="url(&quot;#paint3_linear_47958_27009&quot;)"></path><path fill-rule="evenodd" clip-rule="evenodd" d="M25.5156 65.5348L65.5353 25.5151L70.4851 30.4649L30.4654 70.4846L25.5156 65.5348Z" fill="url(&quot;#paint4_linear_47958_27009&quot;)"></path><defs><linearGradient id="paint0_linear_47958_27009" x1="7.1842" y1="0" x2="7.1842" y2="14.3684" gradientUnits="userSpaceOnUse"><stop stop-color="#F0B90B"></stop><stop offset="1" stop-color="#F8D33A"></stop></linearGradient><linearGradient id="paint1_linear_47958_27009" x1="7.1842" y1="0" x2="7.1842" y2="14.3684" gradientUnits="userSpaceOnUse"><stop stop-color="#F0B90B"></stop><stop offset="1" stop-color="#F8D33A"></stop></linearGradient><linearGradient id="paint2_linear_47958_27009" x1="48.0012" y1="0" x2="48.0012" y2="47.501" gradientUnits="userSpaceOnUse"><stop stop-color="#929AA5"></stop><stop offset="1" stop-color="#76808F"></stop></linearGradient><linearGradient id="paint3_linear_47958_27009" x1="47.9983" y1="48.499" x2="47.9983" y2="96.0001" gradientUnits="userSpaceOnUse"><stop stop-color="#F0B90B"></stop><stop offset="1" stop-color="#F8D33A"></stop></linearGradient><linearGradient id="paint4_linear_47958_27009" x1="48.0003" y1="25.5151" x2="48.0003" y2="70.4846" gradientUnits="userSpaceOnUse"><stop stop-color="#929AA5"></stop><stop offset="1" stop-color="#76808F"></stop></linearGradient></defs></symbol></defs><use xlink:href="#execution-otc-g" fill="#1E2329"></use></svg>