<svg xmlns:xlink="http://www.w3.org/1999/xlink" xmlns="http://www.w3.org/2000/svg" fill="currentColor" class="css-6px2js" width="24"  height="24" ><defs><symbol viewBox="0 0 24 24" id="crypto-f"><path fill-rule="evenodd" clip-rule="evenodd" d="M12 3C16.9706 3 21 7.02944 21 12C21 16.9706 16.9706 21 12 21C7.02944 21 3 16.9706 3 12C3 7.02944 7.02944 3 12 3ZM14.1642 18.5H12.5052V16.9617H11.4948V18.5H9.83585V16.9617H8.32773V7.03828H9.83585V5.5H11.4948V7.03828H12.5052V5.5H14.1642V7.08353C15.4611 7.29466 16.2152 8.2297 16.2152 9.58701C16.2152 10.9594 15.5969 11.5476 14.2848 11.7135V11.8039C15.6572 11.8794 16.5922 12.5731 16.5922 14.1265C16.5922 15.6497 15.5516 16.8863 14.1642 16.9617V18.5ZM13.0632 8.86311H10.4843V11.1102H13.0632C13.6363 11.1102 13.9832 10.8086 13.9832 10.2355V9.73782C13.9832 9.16473 13.6363 8.86311 13.0632 8.86311ZM13.4252 12.8596H10.4843V15.1369H13.4252C13.9983 15.1369 14.3602 14.8202 14.3602 14.2471V13.7494C14.3602 13.1763 13.9983 12.8596 13.4252 12.8596Z" fill="currentColor"></path></symbol></defs><use xlink:href="#crypto-f" fill="#848E9C"></use></svg>