<svg xmlns:xlink="http://www.w3.org/1999/xlink" xmlns="http://www.w3.org/2000/svg" fill="currentColor" class="css-6px2js" width="24"  height="24" ><defs><symbol viewBox="0 0 24 24" id="chart-donut-f"><path fill-rule="evenodd" clip-rule="evenodd" d="M17.4123 19.1912C15.906 20.3267 14.0316 20.9998 12 20.9998C7.02944 20.9998 3 16.9704 3 11.9998C3 7.45343 6.37108 3.69438 10.75 3.08594V8.19612C9.15149 8.72112 7.99725 10.2257 7.99725 11.9998C7.99725 14.2105 9.78934 16.0026 12 16.0026C12.6466 16.0026 13.2574 15.8493 13.7981 15.577L17.4123 19.1912ZM19.1817 17.425C20.323 15.9165 21 14.0372 21 11.9998C21 7.45343 17.6289 3.69438 13.25 3.08594V8.19612C14.8485 8.72112 16.0028 10.2257 16.0028 11.9998C16.0028 12.6524 15.8466 13.2686 15.5695 13.8129L19.1817 17.425Z" fill="currentColor"></path></symbol></defs><use xlink:href="#chart-donut-f" fill="#848E9C"></use></svg>