<svg xmlns:xlink="http://www.w3.org/1999/xlink" xmlns="http://www.w3.org/2000/svg" fill="currentColor" class="css-1uu1fpi" width="24"  height="24" ><defs><symbol viewBox="0 0 24 24" id="futures-usdt-m-g"><g><path d="M6 2h15v17a2 2 0 0 1-2 2H4l2-2V2z" fill="url(&quot;#paint0_linear&quot;)"></path><path d="M14.5 18v-1.448c2.006-.332 2.941-1.583 2.941-3.061 0-1.539-1.01-2.398-3.122-2.88V8.106c.724.166 1.207.497 1.569.905l1.372-1.237c-.664-.754-1.553-1.222-2.76-1.357V5h-1.72v1.418c-1.945.226-2.985 1.282-2.985 2.865 0 1.463.92 2.458 3.182 2.926v2.714c-.845-.12-1.553-.527-2.127-1.13l-1.357 1.236c.754.83 1.765 1.448 3.288 1.584V18h1.72zm-2.624-8.777c0-.588.332-.996 1.1-1.146v2.232c-.768-.212-1.1-.513-1.1-1.086zm3.484 4.434c0 .573-.332 1.04-1.04 1.236V12.51c.859.257 1.04.71 1.04 1.147z" fill="#76808F"></path><path d="M4 21a2 2 0 0 0 2-2v-7H2v7a2 2 0 0 0 2 2z" fill="#76808F"></path><defs><linearGradient id="paint0_linear" x1="12.5" y1="21" x2="12.5" y2="2" gradientUnits="userSpaceOnUse"><stop stop-color="#F0B90B"></stop><stop offset="1" stop-color="#F8D33A"></stop></linearGradient></defs></g></symbol></defs><use xlink:href="#futures-usdt-m-g" fill="#1E2329"></use></svg>