<svg xmlns:xlink="http://www.w3.org/1999/xlink" xmlns="http://www.w3.org/2000/svg" fill="currentColor" class="css-jw93ck" width="24"  height="24" ><defs><symbol viewBox="0 0 24 24" id="icon-h-telegram"><path d="M12 2C6.47761 2 2 6.47761 2 11.9893C2 17.5117 6.47761 22 12 22C17.5224 22 22 17.5117 22 11.9893C22 6.47761 17.5224 2 12 2ZM16.9254 8.27932C16.8614 9.20682 15.145 16.1365 15.145 16.1365C15.145 16.1365 15.0384 16.5416 14.6652 16.5522C14.5373 16.5522 14.3667 16.5416 14.1748 16.3603C13.7804 16.0299 12.8849 15.3902 12.0426 14.8038C12.0107 14.8358 11.9787 14.8678 11.936 14.8998C11.7441 15.0704 11.4563 15.3156 11.1471 15.6141C11.0299 15.7207 10.9019 15.838 10.774 15.9659L10.7633 15.9765C10.6887 16.0512 10.6247 16.1045 10.5714 16.1471C10.1557 16.4883 10.113 16.2004 10.113 16.0512L10.3369 13.6098V13.5885L10.3475 13.5672C10.3582 13.5352 10.3795 13.5245 10.3795 13.5245C10.3795 13.5245 14.7399 9.64392 14.8571 9.22815C14.8678 9.20682 14.8358 9.1855 14.7825 9.20682C14.4947 9.30277 9.47335 12.4797 8.91898 12.8316C8.88699 12.8529 8.79104 12.8422 8.79104 12.8422L6.34968 12.0426C6.34968 12.0426 6.06183 11.9254 6.15778 11.6588C6.1791 11.6055 6.21109 11.5522 6.32836 11.4776C6.87207 11.0938 16.3284 7.69296 16.3284 7.69296C16.3284 7.69296 16.5949 7.60768 16.7548 7.66098C16.8294 7.69296 16.8721 7.72495 16.9147 7.83156C16.9254 7.8742 16.936 7.95949 16.936 8.05544C16.936 8.10874 16.9254 8.17271 16.9254 8.27932Z" fill="currentColor"></path></symbol></defs><use xlink:href="#icon-h-telegram" fill="#707A8A"></use></svg>