<svg xmlns:xlink="http://www.w3.org/1999/xlink" xmlns="http://www.w3.org/2000/svg" fill="currentColor" class="css-1uu1fpi" width="24"  height="24" ><defs><symbol viewBox="0 0 24 24" id="card-binance-g"><g><path fill-rule="evenodd" clip-rule="evenodd" d="M22 20H2V4h20v16zM7 12H4v-2h3v2z" fill="#76808F"></path><path d="M11.586 13.894l-1.787 1.789-1.787-1.789 1.787-1.788 1.787 1.788zm4.313-4.33l3.056 3.06 1.787-1.789-3.056-3.046L15.899 6l-1.775 1.789-3.056 3.046 1.787 1.789 3.044-3.06zm6.1 2.554l-1.774 1.776 1.774 1.777v-3.553zm-6.1 6.106l-3.056-3.06-1.775 1.79L14.112 20h3.574l3.056-3.059-1.787-1.776-3.056 3.059zm0-2.553l1.787-1.777-1.787-1.788-1.775 1.788 1.775 1.777z" fill="url(&quot;#paint0_linear&quot;)"></path><path d="M4 7.5L5.5 9 7 7.5 5.5 6 4 7.5z" fill="url(&quot;#paint1_linear&quot;)"></path><defs><linearGradient id="paint0_linear" x1="15.006" y1="20" x2="15.006" y2="6" gradientUnits="userSpaceOnUse"><stop stop-color="#F0B90B"></stop><stop offset="1" stop-color="#F8D33A"></stop></linearGradient><linearGradient id="paint1_linear" x1="5.5" y1="9" x2="5.5" y2="6" gradientUnits="userSpaceOnUse"><stop stop-color="#F0B90B"></stop><stop offset="1" stop-color="#F8D33A"></stop></linearGradient></defs></g></symbol></defs><use xlink:href="#card-binance-g" fill="#1E2329"></use></svg>