<svg xmlns:xlink="http://www.w3.org/1999/xlink" xmlns="http://www.w3.org/2000/svg" fill="currentColor" class="css-jw93ck" width="24"  height="24" ><defs><symbol viewBox="0 0 24 24" id="icon-h-discord"><path d="M8.81861 12.4809C8.81861 13.1691 9.32333 13.7307 9.94218 13.7307C10.567 13.7307 11.0657 13.1689 11.0657 12.4809C11.0783 11.7927 10.5666 11.2311 9.94218 11.2311C9.31104 11.2311 8.81861 11.7929 8.81861 12.4809Z" fill="currentColor"></path><path d="M12.9657 12.4809C12.9657 13.1691 13.4717 13.7307 14.0898 13.7307C14.7209 13.7307 15.2134 13.1689 15.2134 12.4809C15.226 11.7927 14.7142 11.2311 14.0898 11.2311C13.4588 11.2311 12.9657 11.7929 12.9657 12.4809Z" fill="currentColor"></path><path fill-rule="evenodd" clip-rule="evenodd" d="M22 12C22 17.5228 17.5228 22 12 22C6.47715 22 2 17.5228 2 12C2 6.47715 6.47715 2 12 2C17.5228 2 22 6.47715 22 12ZM13.7742 7.27979C14.6769 7.43114 15.5417 7.70285 16.3559 8.07514H16.3582C17.7718 10.1392 18.4738 12.4746 18.2021 15.1636C17.122 15.9526 16.0679 16.4322 15.039 16.7479C14.7862 16.4071 14.5592 16.0408 14.3636 15.6559C14.736 15.5169 15.0901 15.3465 15.4302 15.1446C15.3634 15.0969 15.2993 15.0455 15.2338 14.9929C15.2131 14.9763 15.1923 14.9595 15.1711 14.9428C13.1385 15.8833 10.9098 15.8833 8.852 14.9428C8.76888 15.0119 8.68087 15.0818 8.59287 15.1446C8.93365 15.3465 9.28729 15.5169 9.65958 15.6559C9.464 16.0409 9.237 16.4071 8.98415 16.7479C7.95467 16.4323 6.90681 15.9526 5.82103 15.1636C5.60017 12.8407 6.04203 10.4864 7.67688 8.07514C8.48544 7.70236 9.35015 7.43135 10.2591 7.27979C10.3652 7.47536 10.4987 7.74078 10.5867 7.94893C11.5334 7.80993 12.4867 7.80993 13.4466 7.94893C13.5347 7.74078 13.6604 7.47536 13.7742 7.27979Z" fill="currentColor"></path></symbol></defs><use xlink:href="#icon-h-discord" fill="#707A8A"></use></svg>