<svg xmlns:xlink="http://www.w3.org/1999/xlink" xmlns="http://www.w3.org/2000/svg" fill="currentColor" class="css-1uu1fpi" width="24"  height="24" ><defs><symbol viewBox="0 0 24 24" id="earn-savings-g"><path fill-rule="evenodd" clip-rule="evenodd" d="M22 6C22 3.79086 20.2091 2 18 2C15.7909 2 14 3.79086 14 6C14 8.20914 15.7909 10 18 10C20.2091 10 22 8.20914 22 6ZM16.3335 6.00008L18.0002 7.66675L19.6668 6.00008L18.0002 4.33341L16.3335 6.00008Z" fill="url(&quot;#paint0_linear_7105_37452&quot;)"></path><path d="M3.5438 16H2V22H22V16H14.4557C13.9077 17.1939 12.9794 18.177 11.8259 18.7941H6.17363C5.02009 18.177 4.09176 17.1939 3.5438 16Z" fill="#76808F"></path><path fill-rule="evenodd" clip-rule="evenodd" d="M8.99976 7.5C12.3135 7.5 14.9998 10.1863 14.9998 13.5C14.9998 15.7919 13.7147 17.7836 11.8259 18.7941H6.17363C4.28477 17.7836 2.99976 15.7919 2.99976 13.5C2.99976 10.1863 5.68605 7.5 8.99976 7.5ZM8.99976 16L6.49976 13.5L8.99976 11L11.4998 13.5L8.99976 16Z" fill="url(&quot;#paint1_linear_7105_37452&quot;)"></path><defs><linearGradient id="paint0_linear_7105_37452" x1="18" y1="2" x2="18" y2="10" gradientUnits="userSpaceOnUse"><stop stop-color="#F0B90B"></stop><stop offset="1" stop-color="#F8D33A"></stop></linearGradient><linearGradient id="paint1_linear_7105_37452" x1="8.99976" y1="7.5" x2="8.99976" y2="18.7941" gradientUnits="userSpaceOnUse"><stop stop-color="#F0B90B"></stop><stop offset="1" stop-color="#F8D33A"></stop></linearGradient></defs></symbol></defs><use xlink:href="#earn-savings-g" fill="#1E2329"></use></svg>