<svg xmlns:xlink="http://www.w3.org/1999/xlink" xmlns="http://www.w3.org/2000/svg" fill="currentColor" class="css-1uu1fpi" width="24"  height="24" ><defs><symbol viewBox="0 0 24 24" id="pay-g"><rect x="2" y="4" width="20" height="15" fill="#76808F"></rect><path fill-rule="evenodd" clip-rule="evenodd" d="M18 22C20.7614 22 23 19.7614 23 17C23 14.2386 20.7614 12 18 12C15.2386 12 13 14.2386 13 17C13 19.7614 15.2386 22 18 22ZM18 15L16 17L18 19L20 17L18 15Z" fill="url(&quot;#paint0_linear&quot;)"></path><path d="M22 10L2 10L2 7L22 7L22 10Z" fill="url(&quot;#paint1_linear&quot;)"></path><path d="M10 14L4 14L4 12L10 12L10 14Z" fill="url(&quot;#paint2_linear&quot;)"></path><defs><linearGradient id="paint0_linear" x1="18" y1="22" x2="18" y2="12" gradientUnits="userSpaceOnUse"><stop stop-color="#F0B90B"></stop><stop offset="1" stop-color="#F8D33A"></stop></linearGradient><linearGradient id="paint1_linear" x1="2" y1="10.5" x2="22" y2="10.5" gradientUnits="userSpaceOnUse"><stop stop-color="#F0B90B"></stop><stop offset="1" stop-color="#F8D33A"></stop></linearGradient><linearGradient id="paint2_linear" x1="2" y1="10.5" x2="22" y2="10.5" gradientUnits="userSpaceOnUse"><stop stop-color="#F0B90B"></stop><stop offset="1" stop-color="#F8D33A"></stop></linearGradient></defs></symbol></defs><use xlink:href="#pay-g" fill="#1E2329"></use></svg>