<svg width="80" height="80" fill="none" xmlns="http://www.w3.org/2000/svg"><path fill-rule="evenodd" clip-rule="evenodd" d="M63.333 70H10V33.333h53.333V47.5l4.167 4.167-4.167 4.166V70zM40 41.667v20h-6.667v-20H40z" fill="url(#paint0_linear_1288_31952)"/><path fill-rule="evenodd" clip-rule="evenodd" d="M60 63.333c6.444 0 11.667-5.223 11.667-11.666C71.667 45.223 66.444 40 60.001 40c-5.285 0-9.75 3.514-11.184 8.333H33.334v13.334h6.667V55h8.816c1.434 4.82 5.899 8.333 11.184 8.333zm-5-11.666l5 5 5-5-5-5-5 5z" fill="#76808F"/><path opacity=".2" d="M60 16.667L63.333 20l3.334-3.333-3.334-3.334L60 16.667zM70.834 66.25l2.083 2.083 2.084-2.083-2.084-2.083-2.083 2.083zM4.166 44.167h2.5v-2.5h-2.5v2.5z" fill="#76808F"/><path fill-rule="evenodd" clip-rule="evenodd" d="M36.667 15a9.167 9.167 0 00-9.166 9.167v9.166h-6.667v-9.166c0-8.745 7.089-15.834 15.833-15.834 8.745 0 15.834 7.09 15.834 15.834V25h-6.667v-.833A9.167 9.167 0 0036.667 15z" fill="#76808F"/><defs><linearGradient id="paint0_linear_1288_31952" x1="38.75" y1="70" x2="38.75" y2="33.333" gradientUnits="userSpaceOnUse"><stop stop-color="#F0B90B"/><stop offset="1" stop-color="#F8D33A"/></linearGradient></defs></svg>