<svg width="80" height="80" fill="none" xmlns="http://www.w3.org/2000/svg"><path d="M30 45l10 10 10-10v25H30V45z" fill="url(#paint0_linear_1288_31960)"/><path d="M39.998 38.334c-8.284 0-15-6.716-15-15 0-8.284 6.715-15 15-15 8.284 0 15 6.716 15 15 0 8.285-6.716 15-15 15z" fill="url(#paint1_linear_1288_31960)"/><path opacity=".2" d="M64.166 38.334l3.333 3.333 3.334-3.334L67.499 35l-3.333 3.334zm-47.5-31.667l2.5 2.5 2.5-2.5-2.5-2.5-2.5 2.5zm-10 24.166L8.333 32.5l1.666-1.667-1.666-1.666-1.667 1.666z" fill="#76808F"/><path d="M30 45h-6.667C15.97 45 10 50.97 10 58.333V70h20V45z" fill="url(#paint2_linear_1288_31960)"/><path d="M50 70h20V58.333C70 50.97 64.03 45 56.667 45H50v25z" fill="url(#paint3_linear_1288_31960)"/><defs><linearGradient id="paint0_linear_1288_31960" x1="40" y1="70" x2="40" y2="45" gradientUnits="userSpaceOnUse"><stop stop-color="#F0B90B"/><stop offset="1" stop-color="#F8D33A"/></linearGradient><linearGradient id="paint1_linear_1288_31960" x1="39.998" y1="38.334" x2="39.998" y2="8.334" gradientUnits="userSpaceOnUse"><stop stop-color="#F0B90B"/><stop offset="1" stop-color="#F8D33A"/></linearGradient><linearGradient id="paint2_linear_1288_31960" x1="40" y1="45" x2="40" y2="70" gradientUnits="userSpaceOnUse"><stop stop-color="#929AA5"/><stop offset="1" stop-color="#76808F"/></linearGradient><linearGradient id="paint3_linear_1288_31960" x1="40" y1="45" x2="40" y2="70" gradientUnits="userSpaceOnUse"><stop stop-color="#929AA5"/><stop offset="1" stop-color="#76808F"/></linearGradient></defs></svg>